<svg xmlns="http://www.w3.org/2000/svg" width="51.313" height="38.99" viewBox="0 0 51.313 38.99">
  <g id="NoPath_-_Copy_3_" data-name="NoPath - Copy (3)" transform="translate(-60.776 -22.26)">
    <path id="Path_47531" data-name="Path 47531" d="M325.776,189.908a4.89,4.89,0,0,1-1.092-.238c-.224-.069-.238,0-.238.2.083.852.159,1.705.238,2.559q.181,1.934.366,3.865c.033.364.062.725.1,1.089-.19.119-.15.312-.15.488v24.706c-.407.219-.419.219-.454-.238-.112-1.384-.212-2.771-.314-4.155q-.2-2.79-.407-5.578-.15-2.022-.3-4.044-.207-2.8-.419-5.609-.15-1.993-.293-3.994-.209-2.814-.421-5.633l-.29-3.939q-.121-1.665-.238-3.33c0-.093-.081-.264.138-.159,1.242.58,2.514,1.087,3.777,1.617Z" transform="translate(-261.073 -161.466)" fill="#4970aa"/>
    <path id="Path_47532" data-name="Path 47532" d="M442.937,244.364a4.568,4.568,0,0,0,1.822-.778c.445-.271.873-.568,1.306-.856a.27.27,0,0,0,.017.081c.714,1.389,1.441,2.773,2.155,4.163.585,1.139,1.161,2.283,1.741,3.423.04.081.067.174.164.209a15.778,15.778,0,0,1-1.56,1.953,12.692,12.692,0,0,1-1.8,1.665c-.1.052-.193.1-.285.157a2.348,2.348,0,0,1-1.085.4,1.473,1.473,0,0,1-1.5-1.061,8.494,8.494,0,0,1-.312-1.092,1.212,1.212,0,0,1,0-.162,10.288,10.288,0,0,0,.214-2.243c0-.2-.052-.255-.238-.143a.208.208,0,0,1-.312-.209c-.414-.811-.825-1.622-1.244-2.433-.238-.461-.457-.932-.714-1.384a1.5,1.5,0,0,1-.314-.833.759.759,0,0,1,.271-.124A12.3,12.3,0,0,0,442.937,244.364Z" transform="translate(-351.876 -204.807)" fill="#36b8cd"/>
    <path id="Path_47536" data-name="Path 47536" d="M375.57,202.414q.419-1.936.835-3.877l2.184-9.964c.019-.088.045-.174.076-.283a2.124,2.124,0,0,1,.433.385c-.088.05-.076.138-.076.219v6.225c0,.088-.021.193.114.209-.212,1.037-.419,2.074-.635,3.109q-1.306,6.225-2.616,12.45c-.026.124-.064.238-.1.366a.637.637,0,0,1-.117-.476q0-4.029,0-8.054C375.672,202.611,375.741,202.466,375.57,202.414Z" transform="translate(-302.016 -163.316)" fill="#3aa9c6"/>
    <path id="Path_47537" data-name="Path 47537" d="M335.118,259.474V234.768c0-.176-.04-.369.15-.488l.514,5.426q.288,3.054.583,6.111c.157,1.665.3,3.33.461,5,.136,1.456.278,2.909.416,4.365a1.288,1.288,0,0,1,0,.136c-.117.026-.1.119-.1.2v3.121Z" transform="translate(-271.183 -198.367)" fill="#4776ad"/>
    <path id="Path_47538" data-name="Path 47538" d="M409.34,243.282a4.232,4.232,0,0,1-.164-1.02,9.2,9.2,0,0,1,1.475-5.587,7.866,7.866,0,0,1,.885-1.244,2.367,2.367,0,0,1-.036.238,7.956,7.956,0,0,0-.293,2.343,2.654,2.654,0,0,0,.476,1.375,2.5,2.5,0,0,0,1.013.714,1.166,1.166,0,0,0,.219.552c.766,1.515,1.537,3.03,2.3,4.548.064.126.193.238.174.392a7.778,7.778,0,0,1-2.141-.052c-.314-.083-.628-.174-.951-.25a12.532,12.532,0,0,1-1.254-.521A8.875,8.875,0,0,1,409.34,243.282Z" transform="translate(-327.611 -199.243)" fill="#5899bf"/>
    <path id="Path_47539" data-name="Path 47539" d="M419.221,235.649a2.327,2.327,0,0,1-1.013-.714,2.654,2.654,0,0,1-.476-1.375,7.957,7.957,0,0,1,.293-2.343c.019-.079.024-.162.036-.238h0l.05-.067a9.026,9.026,0,0,1,1.161-1.3c.426.128.856.238,1.277.385.752.25,1.522.428,2.26.714a4.23,4.23,0,0,0-.647,1.23,1.539,1.539,0,0,0,.571,1.729,3.534,3.534,0,0,0,2.188.673h.276a12.3,12.3,0,0,1-1.653.714.758.758,0,0,0-.271.124,4.422,4.422,0,0,0-.832.238c-.476.133-.982.207-1.47.319A6.394,6.394,0,0,1,419.221,235.649Z" transform="translate(-334.148 -194.808)" fill="#4970aa"/>
    <path id="Path_47540" data-name="Path 47540" d="M496.5,216.174a7.469,7.469,0,0,1,1.832-.623,7.678,7.678,0,0,1,4.058.029,6.087,6.087,0,0,1,2.219,1.215,6.163,6.163,0,0,1,1.334,1.548,1.577,1.577,0,0,1,.226.637c-.093,0-.145-.064-.2-.121-.395-.376-.8-.742-1.189-1.137a.671.671,0,0,0-.861-.169,1.358,1.358,0,0,0-.661.212,2.538,2.538,0,0,0-.935.447,3.792,3.792,0,0,0-.666.421,14.241,14.241,0,0,0-2.459,2.326c-.238.036-.347-.076-.445-.274-.433-.856-.849-1.722-1.3-2.569a20.108,20.108,0,0,1-.947-1.943Z" transform="translate(-394.181 -183.895)" fill="#8cd0e1"/>
    <path id="Path_47541" data-name="Path 47541" d="M365.448,247.67c.171.052.1.2.1.3v8.054a.638.638,0,0,0,.117.476q-.264,1.3-.526,2.6a.48.48,0,0,1-.021.078c-.069.333-.069.331.269.338a5.687,5.687,0,0,1,.985.055v2.243c-1.3.076-2.593.133-3.882.276-.278.031-.19-.14-.162-.271q.4-1.855.813-3.715l2.241-10.207C365.4,247.827,365.426,247.749,365.448,247.67Z" transform="translate(-291.894 -208.572)" fill="#3e9abe"/>
    <path id="Path_47543" data-name="Path 47543" d="M466.73,233.753l2.2-1.753c.112,0,.152.083.2.167.147.281.3.561.45.844l2.652,5.195a.538.538,0,0,0-.174.373,7.257,7.257,0,0,1-.1.778c-.114.059-.15.178-.216.274-.366.53-.73,1.063-1.094,1.594-.119,0-.138-.1-.178-.183l-1.456-2.854Z" transform="translate(-371.493 -196.629)" fill="#5dc4d6"/>
    <path id="Path_47544" data-name="Path 47544" d="M487.514,219a20.12,20.12,0,0,0,.951,1.943c.452.847.868,1.713,1.3,2.569.1.2.216.309.442.274l-.274.383c-.6.733-1.17,1.5-1.812,2.2l-.271.238a1.039,1.039,0,0,0-.183-.362q-1.165-2.324-2.345-4.638c-.2-.381-.409-.752-.614-1.127A11.815,11.815,0,0,1,487.514,219Z" transform="translate(-385.196 -186.721)" fill="#80cdde"/>
    <path id="Path_47550" data-name="Path 47550" d="M478.041,225.19c.2.376.419.747.614,1.127q1.177,2.314,2.345,4.638a1.039,1.039,0,0,1,.183.362.4.4,0,0,1-.059.119,13.677,13.677,0,0,1-1.025,1.011,1.922,1.922,0,0,1-.842.561l-2.652-5.195c-.145-.283-.3-.564-.45-.844-.043-.083-.083-.167-.2-.167A13.128,13.128,0,0,1,478.041,225.19Z" transform="translate(-378.527 -191.439)" fill="#70c8da"/>
    <path id="Path_47551" data-name="Path 47551" d="M426.33,274.48a7.778,7.778,0,0,0,2.141.052,7.374,7.374,0,0,0,1.587-.269,9.181,9.181,0,0,0,2.25-.768.475.475,0,0,0,.1-.029c.178-.112.226-.057.238.143a10.292,10.292,0,0,1-.214,2.243,1.207,1.207,0,0,0,0,.162c-.133.514-.266,1.025-.4,1.539l-.043.05a15.862,15.862,0,0,1-4.16-.321.727.727,0,0,1-.126-.048c-.166-.414-.4-.79-.6-1.189A8.88,8.88,0,0,1,426.33,274.48Z" transform="translate(-340.702 -228.189)" fill="#4970aa"/>
    <path id="Path_47557" data-name="Path 47557" d="M439.776,202.181a18.309,18.309,0,0,0-.756-1.832.866.866,0,0,1,.371.076l3.784,1.173,5.383,1.648c.112.033.238.057.293.176-.036.05-.088.048-.143.057a4.109,4.109,0,0,0-.951.216,8.508,8.508,0,0,0-1.606.376H446.1a3.58,3.58,0,0,0-1.047-.376q-2.524-.78-5.045-1.551C439.931,202.129,439.843,202.067,439.776,202.181Z" transform="translate(-350.374 -172.507)" fill="#36b8cd"/>
    <path id="Path_47558" data-name="Path 47558" d="M469.6,264.767c.364-.53.728-1.063,1.094-1.594.067-.1.1-.214.216-.274a1.473,1.473,0,0,1-.029.269c-.081.476-.167.951-.25,1.427a1.307,1.307,0,0,0-.081.2,12.178,12.178,0,0,1-1.337,3.475,11.471,11.471,0,0,1-1.9,2.2,2.07,2.07,0,0,1-.73.554c0-.114-.088-.174-.157-.238l-.79-.79a.875.875,0,0,1-.264-.4,12.7,12.7,0,0,0,1.8-1.665,15.78,15.78,0,0,0,1.56-1.953A8.092,8.092,0,0,0,469.6,264.767Z" transform="translate(-370.456 -220.179)" fill="#8cd0e1"/>
    <path id="Path_47561" data-name="Path 47561" d="M467.275,246.834a8.087,8.087,0,0,1-.878,1.211c-.1-.036-.124-.128-.164-.209-.58-1.139-1.156-2.283-1.741-3.423-.714-1.389-1.427-2.773-2.155-4.163a.271.271,0,0,1-.017-.081l1.049-.8,2.272,4.431q.733,1.427,1.456,2.854C467.137,246.729,467.156,246.829,467.275,246.834Z" transform="translate(-368.131 -202.246)" fill="#45bed1"/>
    <path id="Path_47562" data-name="Path 47562" d="M499.291,270.49a10.11,10.11,0,0,1-1.177,4.122c-.045.078-.1.152-.15.238a3.261,3.261,0,0,0-.728.076,14.91,14.91,0,0,1-1.748.238,5.785,5.785,0,0,0-.837-2.027c.045-.1.147-.126.238-.167a3.023,3.023,0,0,0,.59-.276c.124-.055.25-.109.371-.169a12.068,12.068,0,0,0,1.881-1.037c.29-.14.538-.347.813-.507S499,270.583,499.291,270.49Z" transform="translate(-392.772 -225.964)" fill="#4970aa"/>
    <path id="Path_47566" data-name="Path 47566" d="M448,199.727c-.059-.119-.181-.143-.293-.176l-5.383-1.648-3.784-1.173a.866.866,0,0,0-.371-.076,2.616,2.616,0,0,1-.266-1.154.781.781,0,0,1,.133.019c1.468.452,2.933.911,4.405,1.351a4.642,4.642,0,0,0,.994.278,2.48,2.48,0,0,1,.059.761c0,.136.021.214.181.164a3.923,3.923,0,0,1,3.316.549,6.58,6.58,0,0,0,2.438.847c-.012.048-.036.09-.088.088-.307,0-.6.1-.9.114Z" transform="translate(-349.52 -168.811)" fill="#45bed1"/>
    <path id="Path_47567" data-name="Path 47567" d="M441.75,207.837c.067-.114.155-.052.238-.026l5.045,1.551a3.58,3.58,0,0,1,1.047.376c-.04.019-.076.043-.117.057a13.769,13.769,0,0,0-1.427.492l-1.028.392c-1.07-.328-2.141-.664-3.213-.98a2.02,2.02,0,0,0-.685-.174A2.528,2.528,0,0,0,441.75,207.837Z" transform="translate(-352.348 -178.163)" fill="#3aa9c6"/>
    <path id="Path_47568" data-name="Path 47568" d="M390.19,196.565c-.136-.017-.114-.121-.114-.209v-6.227c0-.081-.012-.169.076-.219l2.1,1.829.74.645v1.427a.549.549,0,0,1-.138.426,9.13,9.13,0,0,1-1.929-1.035c-.138.654-.269,1.282-.4,1.9C390.409,195.592,390.295,196.08,390.19,196.565Z" transform="translate(-313.07 -164.551)" fill="#3cb1c9"/>
    <path id="Path_47569" data-name="Path 47569" d="M427.8,224.8c-.737-.293-1.508-.476-2.26-.714-.421-.14-.852-.257-1.277-.385a13.669,13.669,0,0,1,2.186-1.872l2.957.925c.124.04.276.036.35.181A13.729,13.729,0,0,0,427.8,224.8Z" transform="translate(-339.124 -188.878)" fill="#4482b2"/>
    <path id="Path_47570" data-name="Path 47570" d="M343.705,324.558v-3.121c0-.078-.021-.171.1-.2.04.343.038.338.378.238.8-.238,1.594-.509,2.414-.687.117.076.076.2.076.3v2.35Z" transform="translate(-277.729 -264.3)" fill="#4482b2"/>
    <path id="Path_47571" data-name="Path 47571" d="M355.9,320.958v-2.35c0-.1.04-.221-.076-.3a29.331,29.331,0,0,1,3.123-.771c.14.081.14.219.14.357v2.019Z" transform="translate(-286.964 -261.823)" fill="#428fb9"/>
    <path id="Path_47572" data-name="Path 47572" d="M527.623,238.3a10.578,10.578,0,0,1-1.52,2.835c-.162.238-.347.445-.523.666a.42.42,0,0,1-.052-.117,1.023,1.023,0,0,0-.388-.871c.083-.071.055-.169.055-.257v-3.309a1.563,1.563,0,0,1,1.154-.44,1.037,1.037,0,0,1,.918.566A7.061,7.061,0,0,1,527.623,238.3Z" transform="translate(-416.009 -200.291)" fill="#5dc4d6"/>
    <path id="Path_47573" data-name="Path 47573" d="M436.756,217.815c-.074-.145-.238-.14-.35-.181q-1.477-.476-2.957-.925a7.47,7.47,0,0,1,.859-.583,3.732,3.732,0,0,0,1.073-1.006,2.02,2.02,0,0,1,.685.174c1.073.316,2.141.652,3.214.98a2.809,2.809,0,0,1-.257.152,5.435,5.435,0,0,0-1.061.557,9.812,9.812,0,0,0-.951.664Z" transform="translate(-346.128 -183.764)" fill="#3e9abe"/>
    <path id="Path_47574" data-name="Path 47574" d="M439.259,310.74a8.935,8.935,0,0,1,4.248,3.882,2.017,2.017,0,0,1,.255.714h0c-.323-.2-.642-.4-.97-.595a12.858,12.858,0,0,0-3.092-1.215.787.787,0,0,1-.121-.055,5.912,5.912,0,0,0,.055-1.246c.3.1.554.3.866.383l.062.048a.117.117,0,0,0,.109.055c.012.019.021.045.048.014l-.033-.029a.114.114,0,0,0-.1-.059l-.06-.052a5.861,5.861,0,0,0-1.049-.6c-.1-.05-.188-.1-.281-.157a.642.642,0,0,0,.117-.381A7.01,7.01,0,0,0,439.259,310.74Zm1.563,2.055v-.012h-.012Z" transform="translate(-350.503 -256.64)" fill="#8cd0e1"/>
    <path id="Path_47575" data-name="Path 47575" d="M369.08,317.828V315.8c0-.138,0-.276-.14-.357.818-.238,1.665-.369,2.5-.53.238-.048.476-.076.714-.112V317l-2.008.554Z" transform="translate(-296.963 -259.734)" fill="#3e9abe"/>
    <path id="Path_47576" data-name="Path 47576" d="M481.53,270.737a12.179,12.179,0,0,0,1.337-3.475,1.3,1.3,0,0,1,.081-.2.751.751,0,0,0,.314-.074,8.565,8.565,0,0,0,1.777-.859,8.474,8.474,0,0,1,.052,1.553.43.43,0,0,1-.3.44c-.278.112-.542.255-.818.376a.392.392,0,0,0-.255.407v1.177A13.83,13.83,0,0,1,481.53,270.737Z" transform="translate(-382.772 -222.641)" fill="#4776ad"/>
    <path id="Path_47577" data-name="Path 47577" d="M490.744,265.51v-1.177a.392.392,0,0,1,.255-.407c.276-.121.54-.264.818-.376a.43.43,0,0,0,.3-.44,8.471,8.471,0,0,0-.052-1.553c.664-.445,1.3-.932,1.922-1.427a.649.649,0,0,1,.052.181v1.86c0,.136-.078.193-.176.25-.392.238-.78.476-1.177.685a.314.314,0,0,0-.188.324V264.8a3.026,3.026,0,0,1-.59.276c-.09.04-.193.064-.238.167-.209-.055-.359.1-.54.15a1.706,1.706,0,0,1-.383.121Z" transform="translate(-389.793 -218.068)" fill="#428fb9"/>
    <path id="Path_47578" data-name="Path 47578" d="M379.46,299.993V297.75a29.6,29.6,0,0,1,3.076.238v1.962Z" transform="translate(-304.98 -246.74)" fill="#3aa9c6"/>
    <path id="Path_47579" data-name="Path 47579" d="M338.36,195.15v-2.41c1.016.385,2.05.714,3.052,1.139a.6.6,0,0,0,.133.019v1.553A17.018,17.018,0,0,1,338.36,195.15Z" transform="translate(-273.657 -166.708)" fill="#4482b2"/>
    <path id="Path_47580" data-name="Path 47580" d="M419.165,314.08c-.951-.074-1.9-.171-2.854-.162h-.821v-1.8a16.413,16.413,0,0,1,3.689.416A4.734,4.734,0,0,1,419.165,314.08Z" transform="translate(-332.44 -257.692)" fill="#70c8da"/>
    <path id="Path_47581" data-name="Path 47581" d="M382.46,315.8v-2.2c.68-.159,1.377-.238,2.067-.328.207-.029.416-.038.623-.057v2.041Z" transform="translate(-307.267 -258.53)" fill="#3aa9c6"/>
    <path id="Path_47582" data-name="Path 47582" d="M392.39,300.712V298.75c.951.088,1.9.214,2.854.385v1.713Z" transform="translate(-314.835 -247.502)" fill="#36b8cd"/>
    <path id="Path_47583" data-name="Path 47583" d="M419.318,275.441a9.136,9.136,0,0,0,.768,1.56c.2.4.435.775.6,1.189a7.564,7.564,0,0,1-2.307-.878.359.359,0,0,0-.043-.209c-.238-.459-.5-.913-.733-1.377a3.736,3.736,0,0,1-.476-1.056,12.539,12.539,0,0,0,1.254.521C418.69,275.267,419,275.357,419.318,275.441Z" transform="translate(-333.69 -229.15)" fill="#4776ad"/>
    <path id="Path_47584" data-name="Path 47584" d="M443.369,194.335a4.642,4.642,0,0,1-.994-.278c-1.472-.44-2.938-.9-4.405-1.351a.778.778,0,0,0-.133-.019,2.422,2.422,0,0,1,.048-.878.728.728,0,0,1,.266.043c1.225.378,2.448.764,3.675,1.125a4.621,4.621,0,0,0,1.208.316A2.926,2.926,0,0,1,443.369,194.335Z" transform="translate(-349.456 -165.998)" fill="#5dc4d6"/>
    <path id="Path_47585" data-name="Path 47585" d="M443.25,190.131a4.357,4.357,0,0,1-1.208-.316c-1.227-.362-2.45-.747-3.675-1.125a.728.728,0,0,0-.266-.043,2.69,2.69,0,0,1,.281-.987c.885.266,1.765.547,2.655.8a4.012,4.012,0,0,0,1.177.3A5.068,5.068,0,0,1,443.25,190.131Z" transform="translate(-349.672 -162.836)" fill="#70c8da"/>
    <path id="Path_47586" data-name="Path 47586" d="M393.77,314.571V312.53a8.8,8.8,0,0,1,1.27-.15,6.993,6.993,0,0,1,1.092-.064v1.922Z" transform="translate(-315.887 -257.84)" fill="#36b8cd"/>
    <path id="Path_47587" data-name="Path 47587" d="M518.6,253.5a1.023,1.023,0,0,1,.388.871.421.421,0,0,0,.052.117,15.02,15.02,0,0,1-2.467,2.481,16.215,16.215,0,0,1,.05-2.1l.385-.495a1,1,0,0,0,.271-.266C517.619,253.684,517.98,253.311,518.6,253.5Z" transform="translate(-409.472 -212.978)" fill="#70c8da"/>
    <path id="Path_47588" data-name="Path 47588" d="M509.44,259.44a16.22,16.22,0,0,0-.05,2.1c-.162.214-.44.3-.585.533-.293.093-.476.34-.747.49s-.523.366-.813.507c-.126-.062-.109-.176-.109-.285,0-.354.017-.714,0-1.063a.559.559,0,0,1,.274-.521c.333-.25.645-.528.98-.775C508.767,260.13,509.062,259.737,509.44,259.44Z" transform="translate(-402.286 -217.542)" fill="#5dc4d6"/>
    <path id="Path_47589" data-name="Path 47589" d="M524.453,229.834a9.257,9.257,0,0,0-.357-.925,1.037,1.037,0,0,0-.918-.566c.021-.14-.076-.216-.162-.3-.5-.488-1.009-.978-1.518-1.46-.164-.155-.345-.293-.518-.438a2.538,2.538,0,0,1,.935-.447,1.555,1.555,0,0,0,.136.169c.495.459.992.916,1.484,1.377.352.328.714.661,1.051,1a.3.3,0,0,0,.238.1A5.47,5.47,0,0,1,524.453,229.834Z" transform="translate(-412.839 -191.828)" fill="#45bed1"/>
    <path id="Path_47592" data-name="Path 47592" d="M447.247,299.683a5.757,5.757,0,0,1-2.167.69c-.749.024-.8-.05-.488-.714.278-.6.476-1.244.695-1.867.128-.019.2.074.273.15.447.423.852.892,1.332,1.284A.787.787,0,0,1,447.247,299.683Z" transform="translate(-354.483 -246.77)" fill="#36b8cd"/>
    <path id="Path_47593" data-name="Path 47593" d="M351.75,199.163V197.61c1.273.39,2.54.8,3.834,1.123a8.915,8.915,0,0,1,.978.285c-.4.031-.8.067-1.189.088A31.623,31.623,0,0,1,351.75,199.163Z" transform="translate(-283.862 -170.419)" fill="#428fb9"/>
    <path id="Path_47596" data-name="Path 47596" d="M450.29,285.879c.131-.514.264-1.025.4-1.539a8.493,8.493,0,0,0,.312,1.092,1.477,1.477,0,0,0,1.5,1.061c-.021.126.064.2.14.276l1.175,1.173c.069.069.162.124.164.238-.293.166-.523.442-.875.507,0-.1-.076-.162-.14-.226l-2.379-2.379a.868.868,0,0,0-.295-.2Z" transform="translate(-358.963 -236.52)" fill="#70c8da"/>
    <path id="Path_47597" data-name="Path 47597" d="M443.112,185.39a4.332,4.332,0,0,1-1.177-.3c-.89-.238-1.77-.53-2.655-.8a3.62,3.62,0,0,1,.585-1.051,2.856,2.856,0,0,1,.29.057c.476.14.951.293,1.427.431.071.021.164.117.238,0A20.908,20.908,0,0,0,443.112,185.39Z" transform="translate(-350.572 -159.467)" fill="#80cdde"/>
    <path id="Path_47598" data-name="Path 47598" d="M468.474,214.765a8.509,8.509,0,0,1,1.594-.385c0,.19,0,.383-.019.571a13.16,13.16,0,0,0-.14,1.646,4.627,4.627,0,0,1-1.6.362c.055-.445.136-.892.155-1.339C468.474,215.346,468.634,215.06,468.474,214.765Z" transform="translate(-372.697 -183.2)" fill="#3e9abe"/>
    <path id="Path_47599" data-name="Path 47599" d="M430.94,315.414a4.736,4.736,0,0,0,0-1.544,9.732,9.732,0,0,1,2.417.745,5.91,5.91,0,0,1-.055,1.246,22.151,22.151,0,0,0-2.233-.4A.553.553,0,0,1,430.94,315.414Z" transform="translate(-344.215 -259.026)" fill="#80cdde"/>
    <path id="Path_47601" data-name="Path 47601" d="M498.17,289.124a16.585,16.585,0,0,0,1.748-.238,3.262,3.262,0,0,1,.728-.076,8.822,8.822,0,0,1-2.019,2.324c-.1.081-.238.2-.369.1s-.083-.238-.059-.383A4.518,4.518,0,0,0,498.17,289.124Z" transform="translate(-395.454 -239.926)" fill="#4482b2"/>
    <path id="Path_47602" data-name="Path 47602" d="M411.678,269.907a4.275,4.275,0,0,0,.476,1.056c.238.464.476.918.733,1.377a.359.359,0,0,1,.043.209,5.916,5.916,0,0,1-2.938-3.991.894.894,0,0,1,0-.138A8.1,8.1,0,0,0,411.678,269.907Z" transform="translate(-328.248 -224.386)" fill="#428fb9"/>
    <path id="Path_47603" data-name="Path 47603" d="M431.02,307.249a7.008,7.008,0,0,1,.059.714.642.642,0,0,1-.117.381c-.847-.347-1.71-.645-2.583-.913v-1.27A17.608,17.608,0,0,1,431.02,307.249Z" transform="translate(-342.264 -253.15)" fill="#80cdde"/>
    <path id="Path_47604" data-name="Path 47604" d="M463.574,216c.15.285,0,.571,0,.854-.019.447-.1.894-.155,1.339a4.841,4.841,0,0,1-1.539,0c.014-.549.145-1.089.109-1.641a13.766,13.766,0,0,1,1.427-.492c.04-.014.076-.038.117-.057Z" transform="translate(-367.796 -184.435)" fill="#428fb9"/>
    <path id="Path_47605" data-name="Path 47605" d="M475.07,215.585a13.172,13.172,0,0,1,.14-1.646c.017-.188.014-.381.019-.571a4.108,4.108,0,0,1,.951-.216c.055,0,.107,0,.143-.057l.44-.055c-.014.269,0,.535-.038.806a1.332,1.332,0,0,0-.014.794A4.931,4.931,0,0,1,475.07,215.585Z" transform="translate(-377.849 -182.179)" fill="#3aa9c6"/>
    <path id="Path_47606" data-name="Path 47606" d="M449.475,290.81a.868.868,0,0,1,.29.2l2.379,2.379c.064.064.14.121.14.226a2.617,2.617,0,0,1-.714.421.238.238,0,0,0-.09-.162l-2.074-2.081a.264.264,0,0,0-.186-.1,7.159,7.159,0,0,1,.224-.832Z" transform="translate(-358.147 -241.451)" fill="#5dc4d6"/>
    <path id="Path_47607" data-name="Path 47607" d="M421.365,304.1v1.27l-2.2-.492V303.46A16.257,16.257,0,0,1,421.365,304.1Z" transform="translate(-335.245 -251.092)" fill="#70c8da"/>
    <path id="Path_47608" data-name="Path 47608" d="M413.207,302.088V303.5l-1.867-.283V301.66A11.724,11.724,0,0,1,413.207,302.088Z" transform="translate(-329.278 -249.72)" fill="#5dc4d6"/>
    <path id="Path_47609" data-name="Path 47609" d="M461.049,293.3c0-.117-.1-.171-.164-.238q-.585-.59-1.175-1.173c-.076-.078-.162-.15-.14-.276a2.348,2.348,0,0,0,1.085-.4c.093-.055.19-.1.285-.157a.875.875,0,0,0,.264.4l.79.79c.069.069.157.128.157.238A4.5,4.5,0,0,1,461.049,293.3Z" transform="translate(-366.033 -241.641)" fill="#80cdde"/>
    <path id="Path_47610" data-name="Path 47610" d="M403.7,314.036v-1.922a8.935,8.935,0,0,1,1.427-.057v1.858C404.654,313.969,404.178,314.024,403.7,314.036Z" transform="translate(-323.455 -257.638)" fill="#45bed1"/>
    <path id="Path_47611" data-name="Path 47611" d="M406.046,300.662v1.558l-1.646-.157V300.35Q405.23,300.465,406.046,300.662Z" transform="translate(-323.988 -248.722)" fill="#45bed1"/>
    <path id="Path_47612" data-name="Path 47612" d="M401.74,202.143a.549.549,0,0,0,.138-.426V200.29c.476.388.966.771,1.427,1.17.067.057.155.088.2.167a7.739,7.739,0,0,0-.05,1.189A16.133,16.133,0,0,1,401.74,202.143Z" transform="translate(-321.961 -172.462)" fill="#45bed1"/>
    <path id="Path_47613" data-name="Path 47613" d="M409.7,313.938V312.08h1.372v1.8Z" transform="translate(-328.028 -257.661)" fill="#5dc4d6"/>
    <path id="Path_47614" data-name="Path 47614" d="M454.78,218.35c.036.552-.1,1.092-.109,1.641a7.219,7.219,0,0,1-2.25-.547,5.436,5.436,0,0,1,1.061-.557,2.8,2.8,0,0,0,.266-.145Z" transform="translate(-360.586 -186.226)" fill="#4482b2"/>
    <path id="Path_47615" data-name="Path 47615" d="M448.347,294.52a.264.264,0,0,1,.186.1l2.086,2.086a.238.238,0,0,1,.09.162c-.238.078-.416.264-.659.323a.787.787,0,0,0-.354-.476c-.476-.392-.885-.861-1.332-1.284-.078-.076-.145-.169-.274-.15A4.653,4.653,0,0,1,448.347,294.52Z" transform="translate(-357.286 -244.278)" fill="#45bed1"/>
    <path id="Path_47616" data-name="Path 47616" d="M527.839,227.667a.3.3,0,0,1-.238-.1c-.347-.335-.7-.668-1.051-1-.492-.461-.99-.918-1.484-1.377a1.556,1.556,0,0,1-.136-.169,1.358,1.358,0,0,1,.661-.212c0,.126.1.188.178.262.152.143.316.271.476.416.44.419.878.842,1.32,1.261a.6.6,0,0,0,.371.207A2.478,2.478,0,0,1,527.839,227.667Z" transform="translate(-415.849 -191.149)" fill="#5dc4d6"/>
    <path id="Path_47617" data-name="Path 47617" d="M408.985,207.189a7.739,7.739,0,0,1,.05-1.189l2.854,2.169c.012,0,.014.033.043.088C410.931,207.9,409.936,207.591,408.985,207.189Z" transform="translate(-327.479 -176.814)" fill="#5dc4d6"/>
    <path id="Path_47618" data-name="Path 47618" d="M443.665,178.871c-.071.126-.164.031-.238,0-.476-.138-.951-.29-1.427-.431a2.857,2.857,0,0,0-.29-.057,7.119,7.119,0,0,1,1.342-1.5A5.361,5.361,0,0,0,443.665,178.871Z" transform="translate(-352.424 -154.62)" fill="#8cd0e1"/>
    <path id="Path_47619" data-name="Path 47619" d="M530.036,226.7a.6.6,0,0,1-.362-.2c-.442-.419-.88-.842-1.32-1.261-.152-.145-.316-.274-.476-.416-.076-.074-.178-.136-.178-.262a.671.671,0,0,1,.861.169c.381.395.79.761,1.189,1.137.059.057.112.126.2.121A1.427,1.427,0,0,1,530.036,226.7Z" transform="translate(-417.96 -190.896)" fill="#70c8da"/>
    <path id="Path_47620" data-name="Path 47620" d="M481.817,213.993a1.431,1.431,0,0,1,.014-.794c.026-.259.024-.538.038-.806.3-.014.595-.124.9-.114.052,0,.076-.04.088-.088l.5.04a6.367,6.367,0,0,1-1.544,1.763Z" transform="translate(-382.947 -181.531)" fill="#36b8cd"/>
    <path id="Path_47621" data-name="Path 47621" d="M458.41,330.062l.024.012-.019-.014Z" transform="translate(-365.152 -271.365)" fill="#8cd0e1"/>
    <path id="Path_47622" data-name="Path 47622" d="M419.22,235.15l-.05.067Z" transform="translate(-335.245 -199.03)" fill="#5899bf"/>
    <path id="Path_47623" data-name="Path 47623" d="M436.156,258.065a9.18,9.18,0,0,1-2.257.773c-.038-.093-.069-.188-.114-.278q-.614-1.206-1.232-2.41c-.2-.381-.388-.761-.588-1.139a5.78,5.78,0,0,1-.595-1.284c.488-.112.985-.186,1.47-.319a4.424,4.424,0,0,1,.832-.238,1.5,1.5,0,0,0,.314.833c.255.452.476.923.714,1.384.419.811.83,1.622,1.244,2.433A.475.475,0,0,0,436.156,258.065Z" transform="translate(-344.543 -212.764)" fill="#3cb1c9"/>
    <path id="Path_47627" data-name="Path 47627" d="M425.76,255.117a5.78,5.78,0,0,0,.595,1.284c.2.378.392.759.587,1.139q.621,1.206,1.232,2.409c.045.09.076.186.114.278a7.376,7.376,0,0,1-1.594.274c.019-.164-.109-.266-.174-.392-.761-1.518-1.532-3.033-2.3-4.548A1.166,1.166,0,0,1,424,255,6.393,6.393,0,0,0,425.76,255.117Z" transform="translate(-338.926 -214.158)" fill="#3aa9c6"/>
    <path id="Path_47628" data-name="Path 47628" d="M510.1,227.58c.174.145.354.283.519.438.509.476,1.013.973,1.517,1.46.086.081.183.157.162.3a1.563,1.563,0,0,0-1.154.44,3.156,3.156,0,0,0-1.137,1.03,3.957,3.957,0,0,0-.564.714c-.238.159-.371.438-.6.609a3.8,3.8,0,0,1-.345-.266c-.45-.423-.887-.859-1.344-1.275a1.206,1.206,0,0,0-.454-.328l.273-.383a14.344,14.344,0,0,1,2.462-2.326A3.791,3.791,0,0,1,510.1,227.58Z" transform="translate(-401.955 -193.261)" fill="#36b8cd"/>
    <path id="Path_47629" data-name="Path 47629" d="M491.5,252.387c-.626.495-1.258.982-1.922,1.427a8.563,8.563,0,0,1-1.777.859.751.751,0,0,1-.314.074c.083-.476.169-.951.25-1.427.017-.09.019-.178.029-.269a7.265,7.265,0,0,0,.1-.778.537.537,0,0,1,.174-.373,1.978,1.978,0,0,0,.842-.561c.366-.309.687-.671,1.025-1.011a.4.4,0,0,0,.059-.119l.271-.238a.238.238,0,0,1,.167.083c.319.3.621.621.951.894a4.744,4.744,0,0,0,.849.714C492.038,251.968,491.7,252.118,491.5,252.387Z" transform="translate(-387.315 -210.325)" fill="#3e9abe"/>
    <path id="Path_47630" data-name="Path 47630" d="M501.067,244.669a5.175,5.175,0,0,1-.849-.714c-.34-.274-.642-.592-.951-.894a.238.238,0,0,0-.167-.083c.642-.7,1.208-1.465,1.813-2.2a1.206,1.206,0,0,1,.454.328c.457.416.894.852,1.344,1.275a3.8,3.8,0,0,0,.345.266A19.432,19.432,0,0,1,501.067,244.669Z" transform="translate(-396.163 -203.321)" fill="#3aa9c6"/>
    <path id="Path_47636" data-name="Path 47636" d="M500.306,248.678a19.431,19.431,0,0,0,1.979-2.029c.238-.171.357-.45.6-.609a.636.636,0,0,1,.055.345v2.348l-.385.495c-.378.3-.668.69-1.056.98-.335.238-.647.526-.98.775a.559.559,0,0,0-.273.521c.021.352,0,.714,0,1.063,0,.109-.017.224.109.285a12.064,12.064,0,0,1-1.882,1.037c-.121.059-.238.114-.371.169v-1.368a.314.314,0,0,1,.188-.323c.4-.219.785-.454,1.177-.685.1-.057.178-.114.176-.25v-1.86a.651.651,0,0,0-.052-.181C499.788,249.123,500.125,248.973,500.306,248.678Z" transform="translate(-395.402 -207.33)" fill="#5899bf"/>
    <path id="Path_47637" data-name="Path 47637" d="M518.275,243.146V240.8a.635.635,0,0,0-.055-.345,3.96,3.96,0,0,1,.564-.714,3.156,3.156,0,0,1,1.137-1.03v3.313c0,.088.029.186-.055.257-.623-.193-.985.181-1.32.611A1,1,0,0,1,518.275,243.146Z" transform="translate(-410.735 -201.743)" fill="#45bed1"/>
    <path id="Path_47638" data-name="Path 47638" d="M445.109,318.763a.116.116,0,0,1-.109-.055l.019-.019a.114.114,0,0,1,.1.059Z" transform="translate(-354.931 -262.699)" fill="#fefefe"/>
    <path id="Path_47639" data-name="Path 47639" d="M445.474,319l.033.029c-.026.031-.036,0-.048-.014Z" transform="translate(-355.282 -262.935)" fill="#fefefe"/>
    <path id="Path_47640" data-name="Path 47640" d="M214.587,164.707l-.007-.017.017,0Z" transform="translate(-124.269 -108.552)" fill="#fefefe"/>
    <path id="Path_47641" data-name="Path 47641" d="M444.761,318.49l.059.052-.019.019-.062-.048Z" transform="translate(-354.733 -262.547)" fill="#fefefe"/>
  </g>
</svg>
