<svg id="Layer_2" data-name="Layer 2" xmlns="http://www.w3.org/2000/svg" width="32" height="32" viewBox="0 0 32 32">
  <g id="invisible_box" data-name="invisible box">
    <rect id="Rectangle_1668" data-name="Rectangle 1668" width="32" height="32" fill="none"/>
    <rect id="Rectangle_1669" data-name="Rectangle 1669" width="32" height="32" fill="none"/>
  </g>
  <g id="icons_Q2" data-name="icons Q2" transform="translate(2.667 2.733)">
    <path id="Path_48031" data-name="Path 48031" d="M30.667,5.433V29.3a.2.2,0,0,1-.067.133,1.267,1.267,0,0,1-1.2,1.2h-7V20.367h3.267c.2,0,.2,0,.267-.2l.2-1.667c.067-.667.133-1.333.267-2s0-.2-.133-.2H22.4V13.7c0-.2.067-.467.067-.667a1.2,1.2,0,0,1,1.067-1.067l.867-.133h2c.133,0,.133,0,.133-.133V8.3c0-.067,0-.133-.133-.133H23.333a4.8,4.8,0,0,0-2.2.467A4,4,0,0,0,18.8,10.7a4.867,4.867,0,0,0-.533,2.4c-.067,1,0,2.067,0,3.133h-3.4c-.133,0-.133.067-.133.133v3.8c0,.133,0,.133.133.133h3.4V30.567a.2.2,0,0,0-.067.133H5.267a1.267,1.267,0,0,1-1.2-1.2C4,29.5,4,29.433,4,29.367V5.433c0-.067,0-.133.067-.133a1.267,1.267,0,0,1,1.2-1.2H29.4a1.267,1.267,0,0,1,1.2,1.2Z" transform="translate(-4 -4.1)" fill="#fff"/>
  </g>
</svg>
