<svg xmlns="http://www.w3.org/2000/svg" width="43.118" height="56" viewBox="0 0 43.118 56">
  <g id="gold-medal" transform="translate(-58.89)">
    <path id="Path_48022" data-name="Path 48022" d="M131.41,338.1a.819.819,0,0,1-.656.328l-.057,0a61.668,61.668,0,0,1-8.124-1.239l-8.419-4.686-8.419,4.686a61.673,61.673,0,0,1-8.124,1.239.82.82,0,0,1-.827-1.1,71.523,71.523,0,0,0,3.542-14.755c.378-2.815.467-4.628.469-4.669a.82.82,0,0,1,.819-.783l25.08,0a.821.821,0,0,1,.819.784c0,.042.091,1.856.469,4.673a71.579,71.579,0,0,0,3.542,14.755A.824.824,0,0,1,131.41,338.1Z" transform="translate(-33.705 -282.43)" fill="#78c2ef"/>
    <path id="Path_48023" data-name="Path 48023" d="M157.227,322.573a5.408,5.408,0,0,1-1.95,1.992,7.145,7.145,0,0,1-5.035.438,9.529,9.529,0,0,0-1.248-.167,9.483,9.483,0,0,0-.934.731,6.072,6.072,0,0,1-9.323,0,9.489,9.489,0,0,0-.934-.731,8.982,8.982,0,0,0-1.248.167,7.145,7.145,0,0,1-5.035-.437,5.408,5.408,0,0,1-1.95-1.992c.378-2.815.467-4.628.469-4.669a.82.82,0,0,1,.819-.783l25.08,0a.821.821,0,0,1,.819.784C156.76,317.942,156.848,319.756,157.227,322.573Z" transform="translate(-62.949 -282.431)" fill="#74a1e2"/>
    <path id="Path_48024" data-name="Path 48024" d="M195.867,361.407a55.7,55.7,0,0,1-8.419-2.5,55.7,55.7,0,0,1-8.419,2.5,117.385,117.385,0,0,0,2.137-12.283c.3-2.435.4-3.963.4-4a.821.821,0,0,1,.82-.82h10.115a.821.821,0,0,1,.82.82c0,.034.108,1.562.4,4a117.4,117.4,0,0,0,2.137,12.283Z" transform="translate(-107 -306.648)" fill="#e5eaf9"/>
    <path id="Path_48025" data-name="Path 48025" d="M211.133,349.124a5.019,5.019,0,0,0-.686-.072,9.5,9.5,0,0,0-.934.731,6.072,6.072,0,0,1-9.323,0,9.5,9.5,0,0,0-.934-.731,4.558,4.558,0,0,0-.686.072c.3-2.435.4-3.963.4-4a.821.821,0,0,1,.82-.82h10.115a.821.821,0,0,1,.82.82C210.729,345.161,210.838,346.689,211.133,349.124Z" transform="translate(-124.402 -306.648)" fill="#cbd6ef"/>
    <path id="Path_48026" data-name="Path 48026" d="M99.165,26.58a5.8,5.8,0,0,0,.132,2.21,5.19,5.19,0,0,1-.176,3.558A5.31,5.31,0,0,1,96.1,34.3a5.694,5.694,0,0,0-1.95.967,5.713,5.713,0,0,0-.967,1.95,5.3,5.3,0,0,1-1.948,3.025,4.072,4.072,0,0,1-2.674.323c-.294-.042-.59-.093-.883-.145a5.779,5.779,0,0,0-2.21-.133A5.606,5.606,0,0,0,83.7,41.463a5.345,5.345,0,0,1-3.25,1.665,5.345,5.345,0,0,1-3.25-1.665,5.606,5.606,0,0,0-1.765-1.179,5.779,5.779,0,0,0-2.21.133,5.18,5.18,0,0,1-3.557-.177,5.3,5.3,0,0,1-1.949-3.025,5.693,5.693,0,0,0-.966-1.95A5.714,5.714,0,0,0,64.8,34.3a5.3,5.3,0,0,1-3.025-1.948A5.19,5.19,0,0,1,61.6,28.79a5.8,5.8,0,0,0,.132-2.21,5.609,5.609,0,0,0-1.179-1.766,5.343,5.343,0,0,1-1.664-3.25,5.346,5.346,0,0,1,1.664-3.251,5.6,5.6,0,0,0,1.179-1.766,5.8,5.8,0,0,0-.132-2.21,5.187,5.187,0,0,1,.176-3.557A5.3,5.3,0,0,1,64.8,8.83a5.733,5.733,0,0,0,1.95-.967,5.733,5.733,0,0,0,.967-1.95,5.3,5.3,0,0,1,1.948-3.027,5.186,5.186,0,0,1,3.557-.176,5.823,5.823,0,0,0,2.21.133A5.611,5.611,0,0,0,77.2,1.664,5.343,5.343,0,0,1,80.449,0,5.343,5.343,0,0,1,83.7,1.664a5.612,5.612,0,0,0,1.765,1.18,5.8,5.8,0,0,0,2.21-.133c.306-.055.615-.109.923-.151a4.038,4.038,0,0,1,2.634.327,5.3,5.3,0,0,1,1.948,3.027,5.714,5.714,0,0,0,.968,1.95A5.717,5.717,0,0,0,96.1,8.83a5.3,5.3,0,0,1,3.025,1.949,5.186,5.186,0,0,1,.176,3.557,5.8,5.8,0,0,0-.132,2.21,5.6,5.6,0,0,0,1.179,1.766,5.346,5.346,0,0,1,1.664,3.251,5.344,5.344,0,0,1-1.664,3.25,5.611,5.611,0,0,0-1.179,1.767Z" transform="translate(0 0)" fill="#ffe0a9"/>
    <path id="Path_48027" data-name="Path 48027" d="M340.738,46.822a5.8,5.8,0,0,0,.132,2.21,5.19,5.19,0,0,1-.176,3.558,5.31,5.31,0,0,1-3.025,1.949,5.694,5.694,0,0,0-1.95.967,5.713,5.713,0,0,0-.967,1.95,5.3,5.3,0,0,1-1.948,3.025,4.072,4.072,0,0,1-2.674.323,6.349,6.349,0,0,0,1.632-2.86,5.894,5.894,0,0,1,1-2.014,5.893,5.893,0,0,1,2.014-1,5.479,5.479,0,0,0,3.124-2.011,5.357,5.357,0,0,0,.182-3.674,5.981,5.981,0,0,1-.138-2.282,5.806,5.806,0,0,1,1.217-1.823,5.513,5.513,0,0,0,1.718-3.356,5.513,5.513,0,0,0-1.718-3.356,5.794,5.794,0,0,1-1.217-1.823,5.981,5.981,0,0,1,.138-2.282,5.354,5.354,0,0,0-.182-3.673,5.475,5.475,0,0,0-3.124-2.013,5.877,5.877,0,0,1-2.012-1,5.873,5.873,0,0,1-1-2.014A6.466,6.466,0,0,0,330.17,22.8a4.038,4.038,0,0,1,2.634.327,5.3,5.3,0,0,1,1.948,3.027,5.713,5.713,0,0,0,.968,1.95,5.717,5.717,0,0,0,1.949.967,5.3,5.3,0,0,1,3.025,1.949,5.187,5.187,0,0,1,.176,3.557,5.8,5.8,0,0,0-.132,2.21,5.6,5.6,0,0,0,1.179,1.766,5.346,5.346,0,0,1,1.664,3.251,5.344,5.344,0,0,1-1.664,3.25,5.608,5.608,0,0,0-1.179,1.766Z" transform="translate(-241.573 -20.242)" fill="#ffcb78"/>
    <g id="Group_998" data-name="Group 998" transform="translate(65.283 6.367)">
      <path id="Path_48028" data-name="Path 48028" d="M147.672,73.409a15.182,15.182,0,0,1-15.166,15.2q-.607,0-1.2-.048a15.2,15.2,0,0,1,0-30.3q.6-.048,1.2-.048A15.181,15.181,0,0,1,147.672,73.409Z" transform="translate(-117.34 -58.213)" fill="#ffa757"/>
      <path id="Path_48029" data-name="Path 48029" d="M261.369,73.409a15.182,15.182,0,0,1-15.166,15.2q-.607,0-1.2-.048a15.2,15.2,0,0,0,0-30.3q.6-.048,1.2-.048A15.181,15.181,0,0,1,261.369,73.409Z" transform="translate(-231.037 -58.213)" fill="#ff895a"/>
      <path id="Path_48030" data-name="Path 48030" d="M211.881,121.347c-.065-.009-1.245-.166-2.826-.246.294-7.23-.077-14.041-.081-14.114a1.64,1.64,0,0,0-3.068-.715,9.641,9.641,0,0,1-4.108,3.92,1.643,1.643,0,0,0,1.252,3.039,11.421,11.421,0,0,0,2.8-1.8c.056,2.59.075,6.082-.075,9.666-1.658.076-2.914.244-2.981.253a1.644,1.644,0,0,0,.439,3.259,35.02,35.02,0,0,1,4.1-.261h.014a35.029,35.029,0,0,1,4.1.261,1.644,1.644,0,0,0,.439-3.258Z" transform="translate(-191.659 -100.27)" fill="#ffe0a9"/>
      <g id="Group_997" data-name="Group 997" transform="translate(3.525 9.957)">
        <circle id="Ellipse_202" data-name="Ellipse 202" cx="0.82" cy="0.82" r="0.82" transform="translate(0 4.429)" fill="#ffcb78"/>
        <circle id="Ellipse_203" data-name="Ellipse 203" cx="0.82" cy="0.82" r="0.82" transform="translate(0.766)" fill="#ffcb78"/>
        <circle id="Ellipse_204" data-name="Ellipse 204" cx="0.82" cy="0.82" r="0.82" transform="translate(0.766 8.859)" fill="#ffcb78"/>
        <circle id="Ellipse_205" data-name="Ellipse 205" cx="0.82" cy="0.82" r="0.82" transform="translate(21.641 4.429)" fill="#ffcb78"/>
        <circle id="Ellipse_206" data-name="Ellipse 206" cx="0.82" cy="0.82" r="0.82" transform="translate(20.875)" fill="#ffcb78"/>
        <circle id="Ellipse_207" data-name="Ellipse 207" cx="0.82" cy="0.82" r="0.82" transform="translate(20.875 8.859)" fill="#ffcb78"/>
      </g>
    </g>
  </g>
</svg>
