<svg id="good-heart" xmlns="http://www.w3.org/2000/svg" width="24" height="24" viewBox="0 0 24 24">
  <path id="Path_47949" data-name="Path 47949" d="M23.3,122a3.52,3.52,0,0,0-3.516,3.516,6.68,6.68,0,0,1-.612,3.007,4.408,4.408,0,0,0-5.511,1A19.785,19.785,0,0,0,12,131.736a19.791,19.791,0,0,0-1.658-2.213,4.408,4.408,0,0,0-5.511-1,6.68,6.68,0,0,1-.612-3.007A3.52,3.52,0,0,0,.7,122H0v4.34a12.33,12.33,0,0,0,3.648,8.693l2.024,2.024v3.224H18.328v-3.224l2.024-2.024A12.329,12.329,0,0,0,24,126.34V122ZM4.642,134.038a10.989,10.989,0,0,1-3.236-7.7v-2.813a2.113,2.113,0,0,1,1.406,1.989c0,3.386,1.444,5.083,3.648,7.287l.824.824.994-.994-.824-.824a20.04,20.04,0,0,1-1.885-2.088,3,3,0,0,1,3.7.71,10.162,10.162,0,0,1,2.029,3.013v5.432H7.078v-2.4Zm17.952-7.7a10.989,10.989,0,0,1-3.236,7.7l-2.436,2.436v2.4H12.7v-5.432a10.161,10.161,0,0,1,2.029-3.013,3,3,0,0,1,3.7-.71,20.04,20.04,0,0,1-1.885,2.088l-.824.824.994.994.827-.827c2.2-2.2,3.644-3.9,3.644-7.284a2.113,2.113,0,0,1,1.406-1.989Z" transform="translate(0 -116.281)" fill="#ff6b35"/>
  <path id="Path_47950" data-name="Path 47950" d="M129.536,11.7c4.177-3.588,6.327-5,6.327-7.655A3.906,3.906,0,0,0,132.022,0a3.6,3.6,0,0,0-2.456.944A3.54,3.54,0,0,0,127.155,0a3.906,3.906,0,0,0-3.84,4.048C123.315,6.76,125.477,8.219,129.536,11.7Zm-2.381-10.3a2.217,2.217,0,0,1,1.84,1l.556.755.569-.746a2.322,2.322,0,0,1,1.9-1.006,2.517,2.517,0,0,1,2.434,2.642c0,1.861-1.69,3.031-4.923,5.8-3.279-2.805-4.813-3.95-4.813-5.8a2.517,2.517,0,0,1,2.434-2.642Z" transform="translate(-117.535)" fill="#ff6b35"/>
</svg>
