<svg xmlns="http://www.w3.org/2000/svg" width="43.703" height="32" viewBox="0 0 43.703 32">
  <g id="laptop_2_" data-name="laptop (2)" transform="translate(0 -68.553)">
    <g id="Group_981" data-name="Group 981" transform="translate(6.987 73.162)">
      <g id="Group_980" data-name="Group 980" transform="translate(0 0)">
        <path id="Path_47985" data-name="Path 47985" d="M81.851,122.553v18.176h29.73V122.553Zm20.623,13.241a14.409,14.409,0,0,1-11.517,0v-5.666l-2.472-.971,8.23-3.233,8.23,3.233-2.472.971Z" transform="translate(-81.851 -122.553)" fill="#48ab70"/>
      </g>
    </g>
    <g id="Group_982" data-name="Group 982" transform="translate(0 68.553)">
      <path id="Path_47986" data-name="Path 47986" d="M42.85,94.263H41.326V71.609a3.06,3.06,0,0,0-3.057-3.056H5.434a3.06,3.06,0,0,0-3.057,3.056V94.263H.854A.854.854,0,0,0,0,95.116v1.8a3.644,3.644,0,0,0,3.64,3.64H40.063a3.644,3.644,0,0,0,3.64-3.64v-1.8A.854.854,0,0,0,42.85,94.263ZM4.084,71.609A1.351,1.351,0,0,1,5.434,70.26H38.269a1.351,1.351,0,0,1,1.349,1.349V90.484H4.084Zm0,20.582H39.619v2.071H4.084ZM42,96.913a1.935,1.935,0,0,1-1.933,1.933H3.64a1.935,1.935,0,0,1-1.933-1.933V95.97H21v.268a.854.854,0,1,0,1.707,0V95.97H42Z" transform="translate(0 -68.553)" fill="#4774ac"/>
      <path id="Path_47987" data-name="Path 47987" d="M167.2,155.329l-8.23-3.233a.853.853,0,0,0-.624,0l-8.23,3.233a.854.854,0,0,0,0,1.589l1.931.758v5.085a.854.854,0,0,0,.512.782,15.309,15.309,0,0,0,12.2,0,.854.854,0,0,0,.512-.782v-5.085l1.931-.758a.854.854,0,0,0,0-1.589Zm-8.543-1.521,5.9,2.316-5.9,2.316-5.9-2.316Zm4.9,8.382a13.605,13.605,0,0,1-9.81,0v-3.842l4.593,1.8a.854.854,0,0,0,.624,0l4.593-1.8Z" transform="translate(-136.809 -144.911)" fill="#4774ac"/>
    </g>
  </g>
</svg>
