<svg xmlns="http://www.w3.org/2000/svg" width="18.023" height="18" viewBox="0 0 18.023 18">
  <g id="layer1" transform="translate(-0.252 -290.91)">
    <path id="path2536" d="M9.268,290.91a.818.818,0,0,0-.8.833v2.449a.818.818,0,1,0,1.637,0v-2.449A.818.818,0,0,0,9.268,290.91Zm5.714,2.342a.82.82,0,0,0-.56.254l-1.721,1.75a.82.82,0,1,0,1.172,1.146l1.713-1.75a.818.818,0,0,0-.6-1.4Zm-11.557.115a.817.817,0,0,0-.554,1.411l1.75,1.713a.818.818,0,1,0,1.146-1.164l-1.75-1.72a.817.817,0,0,0-.592-.241Zm5.853,2.775a3.774,3.774,0,1,0,3.778,3.771A3.78,3.78,0,0,0,9.279,296.142Zm0,1.637a2.139,2.139,0,1,1-2.135,2.135A2.124,2.124,0,0,1,9.279,297.779Zm-8.17,2.957H3.558a.818.818,0,0,0,0-1.637H1.067a.819.819,0,1,0,.042,1.637Zm13.9,0h2.451a.818.818,0,0,0,0-1.637H14.964a.819.819,0,1,0,.042,1.637Zm-1.653,2.358a.818.818,0,0,0-.556,1.413l1.75,1.713a.818.818,0,1,0,1.146-1.164l-1.756-1.721a.818.818,0,0,0-.584-.241Zm-8.1.085a.823.823,0,0,0-.562.254l-1.72,1.75a.819.819,0,1,0,1.17,1.146l1.713-1.756a.818.818,0,0,0-.6-1.394Zm4.012,1.63a.818.818,0,0,0-.8.832v2.451a.818.818,0,0,0,1.637,0v-2.451A.818.818,0,0,0,9.268,304.809Z" transform="translate(0 0)" fill="#fff"/>
  </g>
</svg>
