<svg id="Layer_2" data-name="Layer 2" xmlns="http://www.w3.org/2000/svg" width="32" height="32" viewBox="0 0 32 32">
  <g id="invisible_box" data-name="invisible box">
    <rect id="Rectangle_1670" data-name="Rectangle 1670" width="32" height="32" fill="none"/>
    <rect id="Rectangle_1671" data-name="Rectangle 1671" width="32" height="32" fill="none"/>
  </g>
  <g id="icons_Q2" data-name="icons Q2" transform="translate(2.667 2.732)">
    <path id="Path_48032" data-name="Path 48032" d="M28.667,4.1H6A1.933,1.933,0,0,0,4,6.033V28.766A1.933,1.933,0,0,0,6,30.7H28.667A1.933,1.933,0,0,0,30.6,28.766V6.033A1.933,1.933,0,0,0,28.667,4.1ZM11.933,26.766h-4V14.1h4Zm-2-14.4a2.333,2.333,0,0,1-2.267-2.333,2.267,2.267,0,0,1,4.533,0,2.333,2.333,0,0,1-2.267,2.333Zm16.733,14.4H22.733v-6.2c0-1.467,0-3.333-2.067-3.333s-2.333,1.6-2.333,3.267v6.267H14.4V14.1h3.733v1.733H18.2a4.133,4.133,0,0,1,3.733-2.067c4,0,4.733,2.6,4.733,6.067Z" transform="translate(-4 -4.098)" fill="#fff"/>
  </g>
</svg>
