<svg id="scroll_1_" data-name="scroll (1)" xmlns="http://www.w3.org/2000/svg" width="24" height="24" viewBox="0 0 24 24">
  <path id="Path_47944" data-name="Path 47944" d="M24,20.484a.7.7,0,0,0-.7-.7H18.39a38.568,38.568,0,0,1,1.37-7.611,36.1,36.1,0,0,0,1.427-8.655A3.52,3.52,0,0,0,17.672,0H3.516A3.52,3.52,0,0,0,0,3.516a.7.7,0,0,0,.7.7H5.61A38.57,38.57,0,0,1,4.24,11.83a36.1,36.1,0,0,0-1.427,8.655A3.52,3.52,0,0,0,6.328,24H20.484A3.52,3.52,0,0,0,24,20.484ZM1.527,2.813a2.11,2.11,0,0,1,3.978,0ZM4.219,20.484A35.063,35.063,0,0,1,5.6,12.17,36.1,36.1,0,0,0,7.031,3.516a3.5,3.5,0,0,0-.705-2.109H17.672a2.112,2.112,0,0,1,2.109,2.109A35.063,35.063,0,0,1,18.4,11.83a39.3,39.3,0,0,0-1.413,7.952H9.141a.7.7,0,0,0-.7.7,2.109,2.109,0,0,1-4.219,0Zm16.266,2.109H9.138a3.5,3.5,0,0,0,.635-1.406h12.7A2.113,2.113,0,0,1,20.484,22.594Z" fill="#ff6b35"/>
  <path id="Path_47945" data-name="Path 47945" d="M180.7,121.406H189A.7.7,0,0,0,189,120h-8.3a.7.7,0,0,0,0,1.406Z" transform="translate(-171.563 -114.375)" fill="#ff6b35"/>
  <path id="Path_47946" data-name="Path 47946" d="M166.624,181.406h8.393a.7.7,0,0,0,0-1.406h-8.393a.7.7,0,0,0,0,1.406Z" transform="translate(-158.143 -171.563)" fill="#ff6b35"/>
  <path id="Path_47947" data-name="Path 47947" d="M152.566,241.406h8.357a.7.7,0,0,0,0-1.406h-8.357a.7.7,0,0,0,0,1.406Z" transform="translate(-144.744 -228.75)" fill="#ff6b35"/>
  <path id="Path_47948" data-name="Path 47948" d="M137.726,301.406h8.393a.7.7,0,0,0,0-1.406h-8.393a.7.7,0,0,0,0,1.406Z" transform="translate(-130.6 -285.938)" fill="#ff6b35"/>
</svg>
