<svg xmlns="http://www.w3.org/2000/svg" width="27.5" height="32" viewBox="0 0 27.5 32">
  <g id="pdf" transform="translate(-36)">
    <g id="Group_978" data-name="Group 978" transform="translate(37.875 0)">
      <path id="Path_47969" data-name="Path 47969" d="M89.125,381a.625.625,0,0,0-.625.625v6.313H67.25v-6.312a.625.625,0,0,0-1.25,0v6.938a.625.625,0,0,0,.625.625h22.5a.625.625,0,0,0,.625-.625v-6.937A.625.625,0,0,0,89.125,381Z" transform="translate(-66 -357.188)" fill="#4774ac"/>
      <path id="Path_47970" data-name="Path 47970" d="M89.567,6.433,83.317.183A.625.625,0,0,0,82.875,0H66.625A.625.625,0,0,0,66,.625V13.813a.625.625,0,0,0,1.25,0V1.25h15V6.875a.625.625,0,0,0,.625.625H88.5v6.313a.625.625,0,0,0,1.25,0V6.875A.625.625,0,0,0,89.567,6.433ZM83.5,2.134,87.616,6.25H83.5Z" transform="translate(-66 0)" fill="#4774ac"/>
    </g>
    <path id="Path_47971" data-name="Path 47971" d="M36,216H63.5v11.25H36Z" transform="translate(0 -202.5)" fill="#ff6b35" fill-rule="evenodd"/>
    <g id="Group_979" data-name="Group 979" transform="translate(43.188 16)">
      <path id="Path_47972" data-name="Path 47972" d="M227.875,256h-1.25a.625.625,0,0,0-.625.625v5a.625.625,0,0,0,.625.625h1.25a1.877,1.877,0,0,0,1.875-1.875v-2.5A1.877,1.877,0,0,0,227.875,256Zm.625,4.375a.626.626,0,0,1-.625.625h-.625v-3.75h.625a.626.626,0,0,1,.625.625Z" transform="translate(-221.313 -256)" fill="#fff"/>
      <path id="Path_47973" data-name="Path 47973" d="M152.875,256h-1.25a.625.625,0,0,0-.625.625v5a.625.625,0,0,0,1.25,0v-1.875h.625a1.875,1.875,0,0,0,0-3.75Zm0,2.5h-.625v-1.25h.625a.625.625,0,0,1,0,1.25Z" transform="translate(-151 -255.999)" fill="#fff"/>
      <path id="Path_47974" data-name="Path 47974" d="M308.813,256h-2.187a.625.625,0,0,0-.625.625v5a.625.625,0,0,0,1.25,0V259.75h.914a.625.625,0,0,0,0-1.25h-.914v-1.25h1.563a.625.625,0,0,0,0-1.25Z" transform="translate(-296.313 -256)" fill="#fff"/>
    </g>
  </g>
</svg>
