<svg xmlns="http://www.w3.org/2000/svg" width="23.965" height="24" viewBox="0 0 23.965 24">
  <g id="phone-call_1_" data-name="phone-call (1)" transform="translate(-0.344)">
    <g id="Group_988" data-name="Group 988" transform="translate(0.344 0)">
      <path id="Path_47991" data-name="Path 47991" d="M19.295,40.885a2.361,2.361,0,0,0-1.712-.785,2.441,2.441,0,0,0-1.732.78l-1.6,1.6c-.132-.071-.263-.137-.39-.2-.182-.091-.355-.177-.5-.268a17.4,17.4,0,0,1-4.169-3.8,10.263,10.263,0,0,1-1.368-2.158c.415-.38.8-.775,1.175-1.155.142-.142.284-.289.425-.431a2.324,2.324,0,0,0,0-3.505L8.039,29.574c-.157-.157-.319-.319-.471-.481-.3-.314-.623-.638-.952-.942a2.4,2.4,0,0,0-1.7-.745,2.481,2.481,0,0,0-1.722.745l-.01.01L1.465,29.9a3.706,3.706,0,0,0-1.1,2.355,8.88,8.88,0,0,0,.648,3.758,21.81,21.81,0,0,0,3.875,6.463,23.837,23.837,0,0,0,7.937,6.215,12.367,12.367,0,0,0,4.458,1.317c.106.005.218.01.319.01a3.817,3.817,0,0,0,2.923-1.256c.005-.01.015-.015.02-.025a11.516,11.516,0,0,1,.886-.917c.218-.208.441-.425.658-.653a2.527,2.527,0,0,0,.765-1.753,2.434,2.434,0,0,0-.78-1.737Zm1.813,5.334c-.005,0-.005.005,0,0-.2.213-.4.405-.618.618a13.32,13.32,0,0,0-.978,1.013,2.442,2.442,0,0,1-1.9.805c-.076,0-.157,0-.233-.005a10.986,10.986,0,0,1-3.951-1.185,22.5,22.5,0,0,1-7.476-5.856A20.564,20.564,0,0,1,2.3,35.536a7.232,7.232,0,0,1-.567-3.171,2.325,2.325,0,0,1,.7-1.5l1.727-1.727a1.151,1.151,0,0,1,.77-.36,1.083,1.083,0,0,1,.74.355l.015.015c.309.289.6.588.912.907.157.162.319.324.481.491L8.46,31.924a.967.967,0,0,1,0,1.57c-.147.147-.289.294-.436.436-.425.436-.831.841-1.271,1.236-.01.01-.02.015-.025.025a1.033,1.033,0,0,0-.263,1.15l.015.046a11.1,11.1,0,0,0,1.636,2.669l.005.005a18.592,18.592,0,0,0,4.5,4.093,6.916,6.916,0,0,0,.623.339c.182.091.355.177.5.268.02.01.041.025.061.035a1.1,1.1,0,0,0,.5.127,1.083,1.083,0,0,0,.77-.35l1.732-1.732a1.146,1.146,0,0,1,.765-.38,1.032,1.032,0,0,1,.729.37l.01.01L21.1,44.633A1,1,0,0,1,21.108,46.219Z" transform="translate(-0.344 -26.018)" fill="#707070"/>
      <path id="Path_47992" data-name="Path 47992" d="M245.507,87.282a6.519,6.519,0,0,1,5.309,5.309.68.68,0,0,0,.674.567.906.906,0,0,0,.117-.01.685.685,0,0,0,.562-.79,7.883,7.883,0,0,0-6.423-6.423.687.687,0,0,0-.79.557A.676.676,0,0,0,245.507,87.282Z" transform="translate(-232.554 -81.573)" fill="#707070"/>
      <path id="Path_47993" data-name="Path 47993" d="M260.146,10.587A12.98,12.98,0,0,0,249.57.011a.683.683,0,1,0-.223,1.347A11.594,11.594,0,0,1,258.8,10.81a.68.68,0,0,0,.674.567.9.9,0,0,0,.116-.01A.671.671,0,0,0,260.146,10.587Z" transform="translate(-236.191 0)" fill="#707070"/>
    </g>
  </g>
</svg>
