<svg xmlns="http://www.w3.org/2000/svg" width="43.118" height="56" viewBox="0 0 43.118 56">
  <g id="silver-medal" transform="translate(-58.89)">
    <path id="Path_48013" data-name="Path 48013" d="M131.41,338.1a.819.819,0,0,1-.656.328l-.057,0a61.668,61.668,0,0,1-8.124-1.239l-8.419-4.686-8.419,4.686a61.673,61.673,0,0,1-8.124,1.239.82.82,0,0,1-.827-1.1,71.523,71.523,0,0,0,3.542-14.755c.378-2.815.467-4.628.469-4.669a.82.82,0,0,1,.819-.783l25.08,0a.821.821,0,0,1,.819.784c0,.042.091,1.856.469,4.673a71.579,71.579,0,0,0,3.542,14.755A.824.824,0,0,1,131.41,338.1Z" transform="translate(-33.705 -282.43)" fill="#3caf91"/>
    <path id="Path_48014" data-name="Path 48014" d="M157.227,322.573a5.408,5.408,0,0,1-1.95,1.992,7.145,7.145,0,0,1-5.035.438,9.529,9.529,0,0,0-1.248-.167,9.483,9.483,0,0,0-.934.731,6.072,6.072,0,0,1-9.323,0,9.489,9.489,0,0,0-.934-.731,8.982,8.982,0,0,0-1.248.167,7.145,7.145,0,0,1-5.035-.437,5.408,5.408,0,0,1-1.95-1.992c.378-2.815.467-4.628.469-4.669a.82.82,0,0,1,.819-.783l25.08,0a.821.821,0,0,1,.819.784C156.76,317.942,156.848,319.756,157.227,322.573Z" transform="translate(-62.949 -282.431)" fill="#218780"/>
    <path id="Path_48015" data-name="Path 48015" d="M195.867,361.407a55.7,55.7,0,0,1-8.419-2.5,55.7,55.7,0,0,1-8.419,2.5,117.385,117.385,0,0,0,2.137-12.283c.3-2.435.4-3.963.4-4a.821.821,0,0,1,.82-.82h10.115a.821.821,0,0,1,.82.82c0,.034.108,1.562.4,4a117.4,117.4,0,0,0,2.137,12.283Z" transform="translate(-107 -306.648)" fill="#e5eaf9"/>
    <path id="Path_48016" data-name="Path 48016" d="M211.133,349.124a5.019,5.019,0,0,0-.686-.072,9.5,9.5,0,0,0-.934.731,6.072,6.072,0,0,1-9.323,0,9.5,9.5,0,0,0-.934-.731,4.558,4.558,0,0,0-.686.072c.3-2.435.4-3.963.4-4a.821.821,0,0,1,.82-.82h10.115a.821.821,0,0,1,.82.82C210.729,345.161,210.838,346.689,211.133,349.124Z" transform="translate(-124.402 -306.648)" fill="#cbd6ef"/>
    <path id="Path_48017" data-name="Path 48017" d="M99.165,26.58a5.8,5.8,0,0,0,.132,2.21,5.19,5.19,0,0,1-.176,3.558A5.31,5.31,0,0,1,96.1,34.3a5.694,5.694,0,0,0-1.95.967,5.713,5.713,0,0,0-.967,1.95,5.3,5.3,0,0,1-1.948,3.025,4.072,4.072,0,0,1-2.674.323c-.294-.042-.59-.093-.883-.145a5.779,5.779,0,0,0-2.21-.133A5.606,5.606,0,0,0,83.7,41.463a5.345,5.345,0,0,1-3.25,1.665,5.345,5.345,0,0,1-3.25-1.665,5.606,5.606,0,0,0-1.765-1.179,5.779,5.779,0,0,0-2.21.133,5.18,5.18,0,0,1-3.557-.177,5.3,5.3,0,0,1-1.949-3.025,5.693,5.693,0,0,0-.966-1.95A5.714,5.714,0,0,0,64.8,34.3a5.3,5.3,0,0,1-3.025-1.948A5.19,5.19,0,0,1,61.6,28.79a5.8,5.8,0,0,0,.132-2.21,5.609,5.609,0,0,0-1.179-1.766,5.343,5.343,0,0,1-1.664-3.25,5.346,5.346,0,0,1,1.664-3.251,5.6,5.6,0,0,0,1.179-1.766,5.8,5.8,0,0,0-.132-2.21,5.187,5.187,0,0,1,.176-3.557A5.3,5.3,0,0,1,64.8,8.83a5.733,5.733,0,0,0,1.95-.967,5.733,5.733,0,0,0,.967-1.95,5.3,5.3,0,0,1,1.948-3.027,5.186,5.186,0,0,1,3.557-.176,5.823,5.823,0,0,0,2.21.133A5.611,5.611,0,0,0,77.2,1.664,5.343,5.343,0,0,1,80.449,0,5.343,5.343,0,0,1,83.7,1.664a5.612,5.612,0,0,0,1.765,1.18,5.8,5.8,0,0,0,2.21-.133c.306-.055.615-.109.923-.151a4.038,4.038,0,0,1,2.634.327,5.3,5.3,0,0,1,1.948,3.027,5.714,5.714,0,0,0,.968,1.95A5.717,5.717,0,0,0,96.1,8.83a5.3,5.3,0,0,1,3.025,1.949,5.186,5.186,0,0,1,.176,3.557,5.8,5.8,0,0,0-.132,2.21,5.6,5.6,0,0,0,1.179,1.766,5.346,5.346,0,0,1,1.664,3.251,5.344,5.344,0,0,1-1.664,3.25,5.611,5.611,0,0,0-1.179,1.767Z" transform="translate(0 0)" fill="#e5eaf9"/>
    <path id="Path_48018" data-name="Path 48018" d="M340.738,46.822a5.8,5.8,0,0,0,.132,2.21,5.19,5.19,0,0,1-.176,3.558,5.31,5.31,0,0,1-3.025,1.949,5.694,5.694,0,0,0-1.95.967,5.713,5.713,0,0,0-.967,1.95,5.3,5.3,0,0,1-1.948,3.025,4.072,4.072,0,0,1-2.674.323,6.349,6.349,0,0,0,1.632-2.86,5.894,5.894,0,0,1,1-2.014,5.893,5.893,0,0,1,2.014-1,5.479,5.479,0,0,0,3.124-2.011,5.357,5.357,0,0,0,.182-3.674,5.981,5.981,0,0,1-.138-2.282,5.806,5.806,0,0,1,1.217-1.823,5.513,5.513,0,0,0,1.718-3.356,5.513,5.513,0,0,0-1.718-3.356,5.794,5.794,0,0,1-1.217-1.823,5.981,5.981,0,0,1,.138-2.282,5.354,5.354,0,0,0-.182-3.673,5.475,5.475,0,0,0-3.124-2.013,5.877,5.877,0,0,1-2.012-1,5.873,5.873,0,0,1-1-2.014A6.466,6.466,0,0,0,330.17,22.8a4.038,4.038,0,0,1,2.634.327,5.3,5.3,0,0,1,1.948,3.027,5.713,5.713,0,0,0,.968,1.95,5.717,5.717,0,0,0,1.949.967,5.3,5.3,0,0,1,3.025,1.949,5.187,5.187,0,0,1,.176,3.557,5.8,5.8,0,0,0-.132,2.21,5.6,5.6,0,0,0,1.179,1.766,5.346,5.346,0,0,1,1.664,3.251,5.344,5.344,0,0,1-1.664,3.25,5.608,5.608,0,0,0-1.179,1.766Z" transform="translate(-241.573 -20.242)" fill="#cbd6ef"/>
    <g id="Group_996" data-name="Group 996" transform="translate(65.283 6.367)">
      <path id="Path_48019" data-name="Path 48019" d="M147.672,73.411a15.182,15.182,0,0,1-15.166,15.2q-.607,0-1.2-.048a15.2,15.2,0,0,1,0-30.3q.6-.048,1.2-.048A15.181,15.181,0,0,1,147.672,73.411Z" transform="translate(-117.34 -58.216)" fill="#a9bbe0"/>
      <path id="Path_48020" data-name="Path 48020" d="M261.369,73.411a15.182,15.182,0,0,1-15.166,15.2q-.607,0-1.2-.048a15.2,15.2,0,0,0,0-30.3q.6-.048,1.2-.048A15.181,15.181,0,0,1,261.369,73.411Z" transform="translate(-231.037 -58.216)" fill="#8794c6"/>
      <g id="Group_995" data-name="Group 995" transform="translate(3.525 9.957)">
        <circle id="Ellipse_196" data-name="Ellipse 196" cx="0.82" cy="0.82" r="0.82" transform="translate(20.875)" fill="#cbd6ef"/>
        <circle id="Ellipse_197" data-name="Ellipse 197" cx="0.82" cy="0.82" r="0.82" transform="translate(0 4.429)" fill="#cbd6ef"/>
        <circle id="Ellipse_198" data-name="Ellipse 198" cx="0.82" cy="0.82" r="0.82" transform="translate(0.766 8.859)" fill="#cbd6ef"/>
        <circle id="Ellipse_199" data-name="Ellipse 199" cx="0.82" cy="0.82" r="0.82" transform="translate(20.875 8.859)" fill="#cbd6ef"/>
        <circle id="Ellipse_200" data-name="Ellipse 200" cx="0.82" cy="0.82" r="0.82" transform="translate(21.641 4.429)" fill="#cbd6ef"/>
        <circle id="Ellipse_201" data-name="Ellipse 201" cx="0.82" cy="0.82" r="0.82" transform="translate(0.766)" fill="#cbd6ef"/>
      </g>
      <path id="Path_48021" data-name="Path 48021" d="M213.177,126.625a14.894,14.894,0,0,1-1.949.258,11.822,11.822,0,0,0,2.076-2.243,9.5,9.5,0,0,0,1.776-6.746,6.387,6.387,0,0,0-1.847-3.732,5.758,5.758,0,0,0-4.073-1.575,5.113,5.113,0,0,0-4.081,1.713,7.148,7.148,0,0,0-1.268,5.337,1.641,1.641,0,1,0,3.242-.508,3.983,3.983,0,0,1,.527-2.7,1.848,1.848,0,0,1,1.58-.555,2.658,2.658,0,0,1,2.675,2.507c.347,2.339-1.2,6.444-6.883,8.166a1.641,1.641,0,0,0,.107,3.169,23.757,23.757,0,0,0,4.892.5,19.572,19.572,0,0,0,3.884-.368,1.641,1.641,0,1,0-.656-3.215Z" transform="translate(-194.28 -106.639)" fill="#e5eaf9"/>
    </g>
  </g>
</svg>
