<svg xmlns="http://www.w3.org/2000/svg" width="18.002" height="18" viewBox="0 0 18.002 18">
  <path id="sleep-mode" d="M17.747,10.656A.666.666,0,0,0,17,10.6a6.971,6.971,0,0,1-3.506.967A7.062,7.062,0,0,1,6.445,4.516a6.907,6.907,0,0,1,.968-3.5A.666.666,0,0,0,6.652.041,9.314,9.314,0,0,0,1.891,3.276,9.015,9.015,0,0,0,0,8.83a9.2,9.2,0,0,0,9.184,9.184,9.021,9.021,0,0,0,5.555-1.89,9.308,9.308,0,0,0,3.237-4.759A.666.666,0,0,0,17.747,10.656ZM9.184,16.682A7.826,7.826,0,0,1,5.544,1.915a8.035,8.035,0,0,0-.431,2.6A8.4,8.4,0,0,0,13.5,12.9a8.06,8.06,0,0,0,2.606-.433A7.864,7.864,0,0,1,9.184,16.682Z" transform="translate(0 -0.014)" fill="#4774ac"/>
</svg>
