<svg xmlns="http://www.w3.org/2000/svg" width="28.662" height="24" viewBox="0 0 28.662 24">
  <g id="Layer_2" data-name="Layer 2" transform="translate(-1 -3.44)">
    <path id="Path_47996" data-name="Path 47996" d="M2.787,27.618A1.8,1.8,0,0,1,1,25.832V11.137a3.707,3.707,0,0,1,3.7-3.7H22.134a3.707,3.707,0,0,1,3.707,3.7V20.93a3.707,3.707,0,0,1-3.7,3.707H7.6a.783.783,0,0,0-.459.153L3.866,27.265a1.806,1.806,0,0,1-1.08.354ZM4.7,9.351a1.8,1.8,0,0,0-1.787,1.787V25.593L6,23.262A2.713,2.713,0,0,1,7.6,22.727H22.134a1.8,1.8,0,0,0,1.8-1.8V11.137a1.8,1.8,0,0,0-1.787-1.787Z" transform="translate(0 -0.178)" fill="#707070"/>
    <circle id="Ellipse_182" data-name="Ellipse 182" cx="0.955" cy="0.955" r="0.955" transform="translate(16.229 14.991)" fill="#707070"/>
    <circle id="Ellipse_183" data-name="Ellipse 183" cx="0.955" cy="0.955" r="0.955" transform="translate(12.522 14.991)" fill="#707070"/>
    <circle id="Ellipse_184" data-name="Ellipse 184" cx="0.955" cy="0.955" r="0.955" transform="translate(8.701 14.991)" fill="#707070"/>
    <path id="Path_47997" data-name="Path 47997" d="M28.93,17.771a.955.955,0,0,1-.955-.955V7.137a1.8,1.8,0,0,0-1.787-1.787H6.955a.955.955,0,1,1,0-1.911H26.188a3.707,3.707,0,0,1,3.7,3.7v9.678A.955.955,0,0,1,28.93,17.771Z" transform="translate(-0.223)" fill="#707070"/>
  </g>
</svg>
