<svg id="Layer_2" data-name="Layer 2" xmlns="http://www.w3.org/2000/svg" width="32" height="32" viewBox="0 0 32 32">
  <g id="invisible_box" data-name="invisible box">
    <rect id="Rectangle_1672" data-name="Rectangle 1672" width="32" height="32" fill="none"/>
    <rect id="Rectangle_1673" data-name="Rectangle 1673" width="32" height="32" fill="none"/>
  </g>
  <g id="icons_Q2" data-name="icons Q2" transform="translate(1.333 4.042)">
    <path id="Path_48033" data-name="Path 48033" d="M31.333,8.821a12.2,12.2,0,0,1-3.467,1,6.267,6.267,0,0,0,2.667-3.333,15.467,15.467,0,0,1-3.8,1.467,6.067,6.067,0,0,0-10.467,4.067,5.067,5.067,0,0,0,.2,1.4,17.2,17.2,0,0,1-12.4-6.267,5.667,5.667,0,0,0-.867,3,5.933,5.933,0,0,0,2.733,5A5.4,5.4,0,0,1,3.2,14.421h0A5.933,5.933,0,0,0,8,20.354a5.733,5.733,0,0,1-1.6.267l-1.133-.133a6.133,6.133,0,0,0,5.667,4.2,12.133,12.133,0,0,1-7.467,2.533H2a16.733,16.733,0,0,0,9.2,2.733c11.067,0,17.133-9.2,17.133-17.133v-.867a12.2,12.2,0,0,0,3-3.133Z" transform="translate(-2 -6.063)" fill="#fff"/>
  </g>
</svg>
