<svg xmlns="http://www.w3.org/2000/svg" width="20.308" height="24" viewBox="0 0 20.308 24">
  <g id="user_account_people_man" data-name="user, account, people, man" transform="translate(-5 -3)">
    <path id="Path_47994" data-name="Path 47994" d="M22.3,16.159A.923.923,0,1,0,21,17.471a8.25,8.25,0,0,1,2.464,5.9c0,1.129-3.236,2.769-8.308,2.769S6.846,24.5,6.846,23.374A8.251,8.251,0,0,1,9.278,17.5.923.923,0,1,0,7.973,16.2,10.086,10.086,0,0,0,5,23.376c0,3,5.231,4.615,10.154,4.615s10.154-1.618,10.154-4.615A10.08,10.08,0,0,0,22.3,16.159Z" transform="translate(0 -0.992)" fill="#ff6b35"/>
    <path id="Path_47995" data-name="Path 47995" d="M15.462,15.923A6.462,6.462,0,1,0,9,9.462,6.462,6.462,0,0,0,15.462,15.923Zm0-11.077a4.615,4.615,0,1,1-4.615,4.615,4.615,4.615,0,0,1,4.615-4.615Z" transform="translate(-0.308)" fill="#ff6b35"/>
  </g>
</svg>
