<svg id="webpage" xmlns="http://www.w3.org/2000/svg" width="32.125" height="32" viewBox="0 0 32.125 32">
  <path id="XMLID_134_" d="M261,136.02h6.275V131H261Z" transform="translate(-244.624 -112.176)" fill="#37b9ce" fill-rule="evenodd"/>
  <path id="XMLID_135_" d="M0,3.765H6.275V0H0Z" transform="translate(15.749 16.314) rotate(180)" fill="#37b9ce" fill-rule="evenodd"/>
  <g id="XMLID_136_">
    <path id="Path_47975" data-name="Path 47975" d="M31.5,7.275h-.69V25.408a.628.628,0,0,1-.627.627H25.788v6.337a.627.627,0,0,1-.627.627H6.965a.627.627,0,0,1-.627-.627V26.035H1.945a.628.628,0,0,1-.627-.627V7.275H.627A.627.627,0,0,1,0,6.647V5.392A4.4,4.4,0,0,1,4.392,1H27.733a4.4,4.4,0,0,1,4.392,4.392V6.647A.628.628,0,0,1,31.5,7.275ZM29.553,24.78V7.275H28.3V22.9a.627.627,0,0,1-.627.627H25.788V24.78ZM5.082,7.275v15H6.337V11.039a.628.628,0,0,1,.627-.627h18.2a.628.628,0,0,1,.627.627V22.271h1.255v-15ZM20.169,6.02A1.842,1.842,0,0,0,18.51,4.765H13.616A1.842,1.842,0,0,0,11.956,6.02Zm4.364,5.647H7.592V26.725H24.533Zm0,20.078V27.98H7.592v3.765ZM2.573,24.78H6.337V23.525H4.455a.627.627,0,0,1-.627-.627V7.275H2.573Zm28.3-19.388a3.141,3.141,0,0,0-3.137-3.137H4.392A3.141,3.141,0,0,0,1.255,5.392V6.02h9.412l.041-.184A3.08,3.08,0,0,1,13.616,3.51H18.51a3.08,3.08,0,0,1,2.908,2.326l.041.184h9.412Z" transform="translate(0 -1)" fill="#4774ac"/>
    <ellipse id="Ellipse_180" data-name="Ellipse 180" cx="0.627" cy="0.627" rx="0.627" ry="0.627" transform="matrix(1, 0.009, -0.009, 1, 4.465, 2.504)" fill="#4774ac"/>
    <path id="Path_47976" data-name="Path 47976" d="M111.627,452.253a.627.627,0,1,1,.627-.627A.637.637,0,0,1,111.627,452.253Z" transform="translate(-104.035 -448.488)" fill="#4774ac"/>
    <path id="Path_47977" data-name="Path 47977" d="M141.627,41a.627.627,0,1,1-.627.627A.638.638,0,0,1,141.627,41Z" transform="translate(-132.153 -12.763)" fill="#4774ac"/>
    <path id="Path_47978" data-name="Path 47978" d="M181.627,41a.627.627,0,1,1-.627.627A.634.634,0,0,1,181.627,41Z" transform="translate(-169.643 -12.763)" fill="#4774ac"/>
    <path id="Path_47979" data-name="Path 47979" d="M221.627,41a.627.627,0,1,1-.627.628A.634.634,0,0,1,221.627,41Z" transform="translate(-207.133 -12.763)" fill="#4774ac"/>
    <path id="Path_47980" data-name="Path 47980" d="M141.627,121h4.392a.627.627,0,1,1,0,1.255h-4.392a.627.627,0,0,1,0-1.255Z" transform="translate(-132.153 -97.784)" fill="#4774ac"/>
    <path id="Path_47981" data-name="Path 47981" d="M141.627,161h4.392a.627.627,0,1,1,0,1.255h-4.392a.627.627,0,0,1,0-1.255Z" transform="translate(-132.153 -140.294)" fill="#4774ac"/>
    <path id="Path_47982" data-name="Path 47982" d="M146.02,202.255h-4.392a.627.627,0,0,1,0-1.255h4.392a.627.627,0,1,1,0,1.255Z" transform="translate(-132.153 -182.804)" fill="#4774ac"/>
    <path id="Path_47983" data-name="Path 47983" d="M281.627,251h4.392a.627.627,0,0,1,0,1.255h-4.392a.627.627,0,0,1,0-1.255Z" transform="translate(-263.369 -235.941)" fill="#4774ac"/>
    <path id="Path_47984" data-name="Path 47984" d="M281.627,291h4.392a.627.627,0,0,1,0,1.255h-4.392a.627.627,0,0,1,0-1.255Z" transform="translate(-263.369 -278.451)" fill="#4774ac"/>
  </g>
</svg>
