<svg xmlns="http://www.w3.org/2000/svg" width="23.223" height="24" viewBox="0 0 23.223 24">
  <g id="Group_958" data-name="Group 958" transform="translate(2922.564 -3441.27)">
    <path id="Path_47853" data-name="Path 47853" d="M488.691,280.941a7.993,7.993,0,0,1-1.376.443,1.039,1.039,0,0,0-.751.51,2.893,2.893,0,0,1-.518.624,1.235,1.235,0,0,1-.022-.375c0-.05.009-.105-.054-.131.026-.035.051-.071.079-.105a6.47,6.47,0,0,0,.76-1.146,9.571,9.571,0,0,0,.751-2.159,1.806,1.806,0,0,0,.071-.394l-.192.283c-.293.431-.592.858-.911,1.271a1.688,1.688,0,0,1-.024-.446c0-.043.016-.1-.055-.11a.161.161,0,0,1,.018-.043c.418-.56.8-1.145,1.19-1.726a.98.98,0,0,0,.2-.539c0-.131.029-.269.038-.4a.1.1,0,0,1,.072-.106,2.173,2.173,0,0,0,.555-.354c.288-.23.539-.5.806-.752a.868.868,0,0,1,.032.354c0,.046-.016.1.042.131a5.341,5.341,0,0,1-1.011.857.226.226,0,0,0-.112.18q-.051.394-.112.781c-.038.238-.08.476-.124.727a4.322,4.322,0,0,0,.648-.283,11.392,11.392,0,0,0,1.052-.643c.063.01.054.059.054.1v.333a3.339,3.339,0,0,1-.414.276,5.955,5.955,0,0,1-1.367.657c-.045.014-.079.032-.091.083-.072.308-.158.61-.256.91,0,.017-.009.045,0,.055s.043,0,.063,0l.1-.041c.469-.191.928-.406,1.388-.619a1.716,1.716,0,0,1,.026.418,14.262,14.262,0,0,1-1.529.678.548.548,0,0,0-.379.365,4.005,4.005,0,0,1-.192.421l.091-.017c.493-.131.974-.3,1.454-.469Z" transform="translate(-3396.239 3179.621)" fill="#ff6b35"/>
    <path id="Path_47854" data-name="Path 47854" d="M394.44,259.131a4.3,4.3,0,0,1-1.315-1.434,5.319,5.319,0,0,1-.67-2.353,7.141,7.141,0,0,1,1.1-4.162,11.228,11.228,0,0,1,.912-1.279,1.029,1.029,0,0,1,.093-.092c.057.022.055.07.055.118v.4c0,.038-.012.082.032.108a1.338,1.338,0,0,0-.1.235,7.708,7.708,0,0,0-.149.847,3.286,3.286,0,0,0,.016.97,1.446,1.446,0,0,0,.489.877,1.184,1.184,0,0,0-.024.3c0,.046.018.1-.026.131a1.472,1.472,0,0,1-.693-.766,2.8,2.8,0,0,1-.183-1.294,4.161,4.161,0,0,0,.037-.511h.017l-.007-.013-.009.018a.618.618,0,0,0-.131.185,6.625,6.625,0,0,0-1.007,4.221,1.031,1.031,0,0,0,.312.682,5.906,5.906,0,0,0,1.061.816v.439a5,5,0,0,1-1.052-.677.756.756,0,0,0,.057.17,4.206,4.206,0,0,0,1.211,1.585A1.827,1.827,0,0,1,394.44,259.131Z" transform="translate(-3315.006 3201.743)" fill="#ff6b35"/>
    <path id="Path_47855" data-name="Path 47855" d="M441.461,308.721a3.273,3.273,0,0,1-1.67.388.855.855,0,0,1-.141-.025.351.351,0,0,1-.245-.546,6.175,6.175,0,0,0,.411-.966c.172-.485.325-.975.477-1.467.034-.112,0-.131-.1-.125a4.659,4.659,0,0,1-.73-.012v-.388h.887c.063,0,.1-.014.122-.084a9.651,9.651,0,0,0,.41-2.423c0-.147,0-.146-.131-.088a8.57,8.57,0,0,1-1.475.485v-.408c.384-.12.772-.23,1.145-.381a8.842,8.842,0,0,0,.819-.381,5.744,5.744,0,0,1-.03,1.751,2.112,2.112,0,0,0-.074.494,2.414,2.414,0,0,0,.377,1.108c-.057.042-.047.1-.053.162-.01.108.03.22-.028.322a1.775,1.775,0,0,1-.509-.73,25.1,25.1,0,0,1-1.136,3.3,2.187,2.187,0,0,0,.966-.131c.229-.083.454-.176.68-.263A1.406,1.406,0,0,1,441.461,308.721Z" transform="translate(-3355.687 3156.153)" fill="#ff6b35"/>
    <path id="Path_47856" data-name="Path 47856" d="M427.9,183.606c.192-.131.388-.254.574-.394a1.421,1.421,0,0,0,.59-1.779,4.015,4.015,0,0,0-.321-.789,3.211,3.211,0,0,1,.1-3.327,4.769,4.769,0,0,1,.851-1.107.743.743,0,0,1,.034.263.483.483,0,0,0,.021.245,6.547,6.547,0,0,0-.5.674,2.877,2.877,0,0,0-.147,3.078,4.189,4.189,0,0,1,.373.945,1.763,1.763,0,0,1-.723,2.094c-.263.2-.549.372-.829.549A2.18,2.18,0,0,1,427.9,183.606Z" transform="translate(-3345.803 3265.667)" fill="#ff6b35"/>
    <path id="Path_47857" data-name="Path 47857" d="M556.737,235.58c.234.2.394.457.62.657a1.459,1.459,0,0,1,.3.6,2.452,2.452,0,0,1,.1,1.225,9.168,9.168,0,0,1-.6,2.074,7.745,7.745,0,0,0-.448.744,5.071,5.071,0,0,1-.329.485,3.425,3.425,0,0,1-.025-.526c0-.033,0-.064-.043-.071.014-.028.028-.057.045-.084a7.887,7.887,0,0,0,.624-1.236.288.288,0,0,0,.02-.175,1.74,1.74,0,0,0-.188-.539.647.647,0,0,0-.394-.334,1.63,1.63,0,0,0-.31-.012,1.24,1.24,0,0,0-.025-.394,1.015,1.015,0,0,1,1.141.657,5.121,5.121,0,0,0,.118-.584,1.921,1.921,0,0,0-.394-1.645c-.071-.087-.122-.2-.247-.233A5.5,5.5,0,0,1,556.737,235.58Z" transform="translate(-3457.132 3214.102)" fill="#ff6b35"/>
    <path id="Path_47858" data-name="Path 47858" d="M506.67,307.336v-.415c.02-.035.057-.042.091-.054a12.5,12.5,0,0,0,1.5-.67c.321-.168.635-.35.95-.526a1.7,1.7,0,0,1,.026.439,13.384,13.384,0,0,1-1.787.92c-.131.057-.131.055-.062.181a4.062,4.062,0,0,1,.556,2.042c0,.2-.028.394-.035.6-.011,0-.016.011,0,.021l.013-.014a.534.534,0,0,0,.166-.131l.526-.526c.089,0,.1.05.1.124.009.1-.043.206.038.294a4.453,4.453,0,0,1-.6.572.825.825,0,0,1-.206.118.322.322,0,0,1-.464-.3,2.155,2.155,0,0,1,.034-.368,3.64,3.64,0,0,0-.539-2.335.08.08,0,0,0-.117-.041Z" transform="translate(-3414.217 3153.226)" fill="#ff6b35"/>
    <path id="Path_47859" data-name="Path 47859" d="M455.253,227.232a4.813,4.813,0,0,1-1.33.1,6.773,6.773,0,0,1-1.956-.385.181.181,0,0,0-.105-.011c-.042-.078-.014-.162-.025-.242s.028-.131-.026-.191c.054-.033.106-.068.162-.1a13.321,13.321,0,0,1,1.84-.814,11.965,11.965,0,0,1,1.287-.4,1.728,1.728,0,0,1,.024.4c-.026.009-.053.02-.079.028a15.869,15.869,0,0,0-2.532.961c-.043.021-.1.03-.125.087a6.247,6.247,0,0,0,1.533.272,5.8,5.8,0,0,0,1.323-.095C455.253,226.975,455.253,227.1,455.253,227.232Z" transform="translate(-3366.569 3223.126)" fill="#ff6b35"/>
    <path id="Path_47860" data-name="Path 47860" d="M465.91,238.924c.347-.263.7-.535,1.041-.8.664-.526,1.292-1.079,1.948-1.608a10.5,10.5,0,0,1,1.474-1,.272.272,0,0,1,.054.163v.263c-.394.263-.8.517-1.17.814-.722.576-1.408,1.195-2.139,1.759-.394.3-.772.607-1.183.879A1.916,1.916,0,0,0,465.91,238.924Z" transform="translate(-3378.816 3214.163)" fill="#ff6b35"/>
    <path id="Path_47861" data-name="Path 47861" d="M526.026,294.617a1.7,1.7,0,0,0-.026-.439.263.263,0,0,1,.034-.032,13.692,13.692,0,0,0,1.455-1.027c.272-.216.526-.455.789-.68a2.368,2.368,0,0,1-.016.546,6.324,6.324,0,0,1-.665.565.279.279,0,0,0-.107.213,7.878,7.878,0,0,1-.828,2.867.4.4,0,0,1-.034.047c-.037-.03-.024-.072-.024-.11v-.511c0-.042.012-.092-.053-.1.093-.272.2-.539.275-.816a9.356,9.356,0,0,0,.237-1.183l-.163.11A8.424,8.424,0,0,1,526.026,294.617Z" transform="translate(-3431.006 3164.717)" fill="#ff6b35"/>
    <path id="Path_47862" data-name="Path 47862" d="M473.569,214a1.726,1.726,0,0,0-.024-.4,6.574,6.574,0,0,1,.727-.192c.359-.081.719-.154,1.115-.238a6.551,6.551,0,0,1-1.255-.6c-.07-.038-.145-.068-.217-.1a3.2,3.2,0,0,0-.874-.237v-.387a2.736,2.736,0,0,1,1.052.263,3.894,3.894,0,0,1,.45.227,5.127,5.127,0,0,0,1.183.526v.657l-.459.085C474.7,213.709,474.131,213.85,473.569,214Z" transform="translate(-3385.008 3234.721)" fill="#ff6b35"/>
    <path id="Path_47863" data-name="Path 47863" d="M542.13,277.84a2.368,2.368,0,0,0,.016-.546c.043-.046.084-.095.131-.139.285-.273.551-.564.815-.857a.45.45,0,0,0,.1-.443.339.339,0,0,0-.526-.209,1.546,1.546,0,0,0-.288.263,4.939,4.939,0,0,1-.354.394.043.043,0,0,1-.028-.047,1.594,1.594,0,0,0,.02-.388c0-.035.016-.083-.043-.095a1.936,1.936,0,0,1,.526-.5.76.76,0,0,1,1.033.317c.049.12.076.072.122,0l.407-.592c.042.007.045.038.043.071a3.425,3.425,0,0,0,.025.526,7.376,7.376,0,0,1-.578.776,5.584,5.584,0,0,1-.394.467A13.108,13.108,0,0,1,542.13,277.84Z" transform="translate(-3444.877 3179.864)" fill="#ff6b35"/>
    <path id="Path_47864" data-name="Path 47864" d="M457.879,195v.386c-.131.007-.255,0-.383.009a3.823,3.823,0,0,0-.881.218c-.088.03-.112.017-.093-.082a2.557,2.557,0,0,0-.506-2.052c-.131-.175-.283-.337-.426-.5a.376.376,0,0,0,.033-.2.818.818,0,0,1,.026-.329,10.763,10.763,0,0,1,.737.849,2.93,2.93,0,0,1,.581,1.681c0,.07.008.1.093.078A2.761,2.761,0,0,1,457.879,195Z" transform="translate(-3369.852 3251.562)" fill="#ff6b35"/>
    <path id="Path_47865" data-name="Path 47865" d="M430.066,246.285a4.238,4.238,0,0,0-.657.847,1.72,1.72,0,0,0-.235.648.958.958,0,0,0,.421.92,2.739,2.739,0,0,0,.348.208v.284c0,.049,0,.095-.058.117a1.759,1.759,0,0,1-.572-.318,1.367,1.367,0,0,1-.488-1.529,3.812,3.812,0,0,1,1.169-1.662c.066.016.041.068.043.106A1.333,1.333,0,0,0,430.066,246.285Z" transform="translate(-3346.546 3205.226)" fill="#ff6b35"/>
    <path id="Path_47866" data-name="Path 47866" d="M443.469,174.332a.818.818,0,0,0-.026.329.376.376,0,0,1-.033.2,5.235,5.235,0,0,1-1.468-2.471,4.445,4.445,0,0,0-.326.319.483.483,0,0,1-.021-.245.745.745,0,0,0-.034-.263,4.074,4.074,0,0,1,.7-.609,1.721,1.721,0,0,1,.041.4,3.393,3.393,0,0,0,.716,1.76A7.078,7.078,0,0,0,443.469,174.332Z" transform="translate(-3357.667 3269.68)" fill="#ff6b35"/>
    <path id="Path_47867" data-name="Path 47867" d="M411.07,232.47a2.186,2.186,0,0,0,.025.454c-.248.193-.509.375-.744.584a7.484,7.484,0,0,0-1.745,1.872c-.043-.026-.032-.07-.032-.108v-.4c0-.049,0-.1-.055-.118a7.907,7.907,0,0,1,.7-.757,12.643,12.643,0,0,1,1.762-1.47C411.007,232.5,411.04,232.487,411.07,232.47Z" transform="translate(-3328.97 3216.803)" fill="#ff6b35"/>
    <path id="Path_47868" data-name="Path 47868" d="M433.882,269.861c.055-.022.058-.068.058-.117v-.284a3.01,3.01,0,0,0,1.249.229,2.429,2.429,0,0,0,.446-.076c.041.026.03.068.03.105v.292a3.132,3.132,0,0,0-.59.213,8.878,8.878,0,0,1-.948.394,4.3,4.3,0,0,1-.739.23c-.042-.026-.03-.068-.032-.107v-.28c.039-.016.079-.035.12-.049.3-.092.588-.2.874-.316.029-.012.075-.008.08-.058A2.67,2.67,0,0,1,433.882,269.861Z" transform="translate(-3350.541 3184.676)" fill="#ff6b35"/>
    <path id="Path_47869" data-name="Path 47869" d="M550.918,229.24a3.372,3.372,0,0,0-.026.609,3.331,3.331,0,0,0-.584,0,4.1,4.1,0,0,0-.88.251.243.243,0,0,0,.018-.068c-.013-.116.066-.248-.067-.339a3.009,3.009,0,0,1,1.159-.266c-.093-.079-.166-.143-.242-.205a5.91,5.91,0,0,0-.822-.526,1.562,1.562,0,0,0,.026-.415,3.643,3.643,0,0,1,.9.526A2.935,2.935,0,0,1,550.918,229.24Z" transform="translate(-3451.313 3220.443)" fill="#ff6b35"/>
    <path id="Path_47870" data-name="Path 47870" d="M471.9,326.5c.063.025.05.08.054.131a1.236,1.236,0,0,0,.022.375,8.79,8.79,0,0,1-1.391,1.244,7.622,7.622,0,0,1-.8.532,1.9,1.9,0,0,0-.024-.448l.087-.062a10.335,10.335,0,0,0,1.461-1.158C471.521,326.919,471.705,326.705,471.9,326.5Z" transform="translate(-3382.168 3135.135)" fill="#ff6b35"/>
    <path id="Path_47871" data-name="Path 47871" d="M493.5,220.277v-.657a5.715,5.715,0,0,0,.681.131,6.206,6.206,0,0,0,.7,0c-.05.084-.088.152-.131.218a5.813,5.813,0,0,1-1,1.255c-.037.034-.067.08-.122.093-.042-.021-.03-.053-.026-.091a.818.818,0,0,0-.02-.394,5.463,5.463,0,0,0,.526-.638Z" transform="translate(-3402.779 3227.964)" fill="#ff6b35"/>
    <path id="Path_47872" data-name="Path 47872" d="M499.9,229.017v-.263a.272.272,0,0,0-.054-.163,10.1,10.1,0,0,1,1.411-.707,7.865,7.865,0,0,1,.92-.334,1.589,1.589,0,0,1,.025.4.132.132,0,0,1-.03.018,11.043,11.043,0,0,0-1.721.737C500.272,228.811,500.089,228.916,499.9,229.017Z" transform="translate(-3408.294 3221.077)" fill="#ff6b35"/>
    <path id="Path_47873" data-name="Path 47873" d="M480.11,228.89a.818.818,0,0,1,.02.394c0,.038-.016.07.026.091a3.338,3.338,0,0,1-.706.526,4.611,4.611,0,0,1-1.387.539.573.573,0,0,1-.083.008v-.385a5.529,5.529,0,0,0,.882-.3A4.553,4.553,0,0,0,480.11,228.89Z" transform="translate(-3389.299 3219.913)" fill="#ff6b35"/>
    <path id="Path_47874" data-name="Path 47874" d="M407.64,317.549a1.885,1.885,0,0,0,.026-.479,5.7,5.7,0,0,0,1.224.715c.291.122.59.212.889.31v.411A5.993,5.993,0,0,1,407.64,317.549Z" transform="translate(-3328.206 3143.325)" fill="#ff6b35"/>
    <path id="Path_47875" data-name="Path 47875" d="M517.625,225.6a1.591,1.591,0,0,0-.025-.4,6.609,6.609,0,0,1,1.232-.291,5.426,5.426,0,0,1,1.073-.068v.394a7.169,7.169,0,0,0-1.315.121C518.26,225.42,517.945,225.513,517.625,225.6Z" transform="translate(-3423.71 3223.436)" fill="#ff6b35"/>
    <path id="Path_47876" data-name="Path 47876" d="M450.8,263.1V262.8c0-.037.01-.079-.03-.105a9.77,9.77,0,0,0,1.954-1.183.165.165,0,0,1,.045-.016,1.913,1.913,0,0,1,.025.459,10.624,10.624,0,0,1-1.146.753A3.622,3.622,0,0,1,450.8,263.1Z" transform="translate(-3365.666 3191.59)" fill="#ff6b35"/>
    <path id="Path_47877" data-name="Path 47877" d="M438.26,237.087a1.335,1.335,0,0,1-.026-.376c0-.038.022-.091-.043-.106.016-.017.03-.037.047-.053a14.077,14.077,0,0,1,1.294-1.044,2.368,2.368,0,0,1,.452-.3c.054.057.018.131.026.191a.617.617,0,0,0,.025.242,15.642,15.642,0,0,0-1.382,1.078C438.52,236.841,438.391,236.965,438.26,237.087Z" transform="translate(-3354.74 3214.424)" fill="#ff6b35"/>
    <path id="Path_47878" data-name="Path 47878" d="M423.91,325.325v-.4c.163.035.326.07.489.108.372.087.753.117,1.129.176a4.889,4.889,0,0,0,.59.029v.388A9,9,0,0,1,423.91,325.325Z" transform="translate(-3342.337 3136.507)" fill="#ff6b35"/>
    <path id="Path_47879" data-name="Path 47879" d="M457.514,340.45a1.893,1.893,0,0,1,.024.448,11.535,11.535,0,0,1-1.457.789c-.131.06-.263.112-.394.167a1.329,1.329,0,0,0-.026-.414A15.461,15.461,0,0,0,457.514,340.45Z" transform="translate(-3369.913 3123.019)" fill="#ff6b35"/>
    <path id="Path_47880" data-name="Path 47880" d="M535.14,225.294V224.9a4.462,4.462,0,0,1,1.6.288l.394.156a1.59,1.59,0,0,1-.026.415A5.194,5.194,0,0,0,535.14,225.294Z" transform="translate(-3438.945 3223.379)" fill="#ff6b35"/>
    <path id="Path_47881" data-name="Path 47881" d="M522.544,319.2c.064.008.053.058.053.1v.511c0,.038-.013.08.024.11a5.989,5.989,0,0,1-1.089,1.446c-.081-.088-.029-.2-.038-.294-.007-.074-.015-.131-.1-.124.139-.17.281-.335.415-.507a6.353,6.353,0,0,0,.739-1.242Z" transform="translate(-3427.002 3141.475)" fill="#ff6b35"/>
    <path id="Path_47882" data-name="Path 47882" d="M180.7,59.617l0-.007h.009Z" transform="translate(-3099.696 3389.458)" fill="#ff6b35"/>
    <path id="Path_47889" data-name="Path 47889" d="M517.581,271.428c-.289.343-.613.657-.931.966a15.54,15.54,0,0,1-1.875,1.585,1.064,1.064,0,0,1-.092.055V273.7c0-.042.009-.091-.054-.1.25-.2.5-.394.748-.6a18.613,18.613,0,0,0,1.833-1.768c.1-.106.2-.205.3-.308a1.046,1.046,0,0,1,.029.372C517.547,271.347,517.526,271.4,517.581,271.428Z" transform="translate(-3421.131 3183.399)" fill="#ff6b35"/>
    <path id="Path_47890" data-name="Path 47890" d="M474.018,305.677a17.123,17.123,0,0,1-1.142,1.416,9.112,9.112,0,0,1-1.15,1.1c-.034.028-.072.05-.108.074a.163.163,0,0,1-.049-.141V307.8a15.3,15.3,0,0,0,2.27-2.553c.033-.043.068-.087.1-.131.071.011.051.067.055.11A1.59,1.59,0,0,0,474.018,305.677Z" transform="translate(-3383.73 3153.704)" fill="#ff6b35"/>
    <path id="Path_47891" data-name="Path 47891" d="M513.264,260.754a5.422,5.422,0,0,1-.414.535c-.263.342-.556.665-.853.983a5.126,5.126,0,0,1-.4.408c-.058-.029-.038-.082-.042-.131a.868.868,0,0,0-.032-.354l.807-.9c.306-.342.559-.726.86-1.071.059.009.045.055.045.092v.237C513.232,260.628,513.2,260.695,513.264,260.754Z" transform="translate(-3418.43 3192.701)" fill="#ff6b35"/>
    <path id="Path_47892" data-name="Path 47892" d="M512.4,297.53c-.2.152-.427.25-.638.383a10.8,10.8,0,0,1-1.052.561.588.588,0,0,1-.067.025,1.716,1.716,0,0,0-.026-.418c.368-.2.744-.394,1.1-.606l.62-.375c.063.009.053.058.053.1Z" transform="translate(-3417.648 3160.67)" fill="#ff6b35"/>
    <path id="Path_47895" data-name="Path 47895" d="M410.807,276.88a2.294,2.294,0,0,0,1.578.3,6.725,6.725,0,0,0,1.286-.263.6.6,0,0,1,.07-.012v.28c0,.038-.01.08.032.106a3.914,3.914,0,0,1-.76.2,4.256,4.256,0,0,1-1.595.06,1.691,1.691,0,0,1-.657-.237c.045-.037.025-.088.026-.131A1.182,1.182,0,0,1,410.807,276.88Z" transform="translate(-3330.916 3178.231)" fill="#ff6b35"/>
    <path id="Path_47896" data-name="Path 47896" d="M408.055,306.487a4.768,4.768,0,0,1-1.875-.518v-.439a4.977,4.977,0,0,0,1.422.49c.149.025.3.045.448.066Z" transform="translate(-3326.938 3153.348)" fill="#ff6b35"/>
    <path id="Path_47897" data-name="Path 47897" d="M404.361,260.488l.009-.018.007.013h-.017Z" transform="translate(-3325.357 3192.484)" fill="#ff6b35"/>
    <path id="Path_47898" data-name="Path 47898" d="M420.44,308.676v-.4a7.711,7.711,0,0,0,1.074,0,8.719,8.719,0,0,0,1.329-.214.164.164,0,0,0,.07-.01v.408a7.042,7.042,0,0,1-1.96.243,2.4,2.4,0,0,1-.513-.025Z" transform="translate(-3339.323 3151.159)" fill="#ff6b35"/>
    <path id="Path_47899" data-name="Path 47899" d="M457.733,325.54v.323a.163.163,0,0,0,.049.141,2.438,2.438,0,0,1-1.325.584,1.052,1.052,0,0,1-.816-.27c.058-.1.017-.214.028-.322a.185.185,0,0,1,.053-.162.852.852,0,0,0,.6.354,1.28,1.28,0,0,0,.578-.122,3.647,3.647,0,0,0,.749-.465Z" transform="translate(-3369.896 3135.969)" fill="#ff6b35"/>
    <path id="Path_47900" data-name="Path 47900" d="M536.628,256.672c-.055-.029-.034-.082-.039-.131a1.046,1.046,0,0,0-.029-.372c.2-.23.394-.461.588-.691a9.429,9.429,0,0,1,.765-.872,2.875,2.875,0,0,1,.987-.614.828.828,0,0,1,.233-.051,1.24,1.24,0,0,1,.025.394,2.311,2.311,0,0,0-.92.532,8.067,8.067,0,0,0-.8.906C537.175,256.078,536.915,256.388,536.628,256.672Z" transform="translate(-3440.178 3198.156)" fill="#ff6b35"/>
    <path id="Path_47903" data-name="Path 47903" d="M523.833,283.442v-.33c0-.042.01-.091-.053-.1.269-.2.543-.394.81-.6a10.55,10.55,0,0,0,1.542-1.5.42.42,0,0,1,.034-.034c.059.012.045.059.043.095a1.6,1.6,0,0,1-.02.388.043.043,0,0,0,.028.047,7,7,0,0,1-.732.772,11.427,11.427,0,0,1-1.57,1.212A.756.756,0,0,1,523.833,283.442Z" transform="translate(-3429.078 3174.757)" fill="#ff6b35"/>
    <path id="Path_47904" data-name="Path 47904" d="M538.337,239.467a5.62,5.62,0,0,0-1.1.673c-.2.147-.384.308-.576.463v-.176c0-.1.026-.206-.05-.294a6.088,6.088,0,0,1,1.052-.768,2.909,2.909,0,0,1,.631-.3c.131.091.054.223.067.339A.243.243,0,0,1,538.337,239.467Z" transform="translate(-3440.221 3211.08)" fill="#ff6b35"/>
    <path id="Path_47905" data-name="Path 47905" d="M525.819,247.22c.076.088.045.195.05.294v.176c-.35.344-.7.686-1.018,1.064-.2.235-.394.472-.586.709-.062-.059-.025-.131-.03-.2s0-.158,0-.237c0-.037.014-.083-.045-.092a9.206,9.206,0,0,1,.711-.837,10.739,10.739,0,0,1,.839-.819C525.766,247.255,525.792,247.238,525.819,247.22Z" transform="translate(-3429.434 3203.992)" fill="#ff6b35"/>
  </g>
</svg>
