<svg xmlns="http://www.w3.org/2000/svg" xmlns:xlink="http://www.w3.org/1999/xlink" width="33.999" height="22" viewBox="0 0 33.999 22">
  <defs>
    <filter id="Path_47906" x="0" y="0" width="33.999" height="22" filterUnits="userSpaceOnUse">
      <feOffset input="SourceAlpha"/>
      <feGaussianBlur stdDeviation="1" result="blur"/>
      <feFlood flood-color="#ff6b35"/>
      <feComposite operator="in" in2="blur"/>
      <feComposite in="SourceGraphic"/>
    </filter>
    <filter id="Rectangle_1595" x="18.394" y="8.339" width="7.641" height="7.641" filterUnits="userSpaceOnUse">
      <feOffset input="SourceAlpha"/>
      <feGaussianBlur stdDeviation="1" result="blur-2"/>
      <feFlood flood-color="#ff6b35"/>
      <feComposite operator="in" in2="blur-2"/>
      <feComposite in="SourceGraphic"/>
    </filter>
  </defs>
  <g id="whale" transform="translate(3 -106.711)">
    <g id="Group_936" data-name="Group 936" transform="translate(0 109.711)">
      <g id="Group_935" data-name="Group 935">
        <g transform="matrix(1, 0, 0, 1, -3, -3)" filter="url(#Path_47906)">
          <path id="Path_47906-2" data-name="Path 47906" d="M23.567,109.711h-7.4a4.437,4.437,0,0,0-4.432,4.432v.634a2.791,2.791,0,0,1-5.583,0v-.487H6.9a3.763,3.763,0,0,0,3.759-3.759v-.82H8.267a3.753,3.753,0,0,0-2.939,1.419,3.753,3.753,0,0,0-2.939-1.419H0v.82a3.763,3.763,0,0,0,3.759,3.759h.749V120.5a5.213,5.213,0,0,0,5.207,5.207H27.007v-2.964H28v-8.6A4.437,4.437,0,0,0,23.567,109.711Zm-15.3,1.641h.584a2.122,2.122,0,0,1-1.953,1.3H6.314A2.122,2.122,0,0,1,8.267,111.352Zm-4.508,1.3a2.122,2.122,0,0,1-1.953-1.3H2.39a2.121,2.121,0,0,1,1.953,1.3Zm22.6,8.457H18.394v1.641h6.973v1.323H9.715A3.57,3.57,0,0,1,6.149,120.5v-2.288a4.429,4.429,0,0,0,7.223-3.439v-.634a2.794,2.794,0,0,1,2.791-2.791h7.4a2.794,2.794,0,0,1,2.791,2.791Z" transform="translate(3 -106.71)" fill="#ff6b35"/>
        </g>
      </g>
    </g>
    <g id="Group_938" data-name="Group 938" transform="translate(18.394 118.05)">
      <g id="Group_937" data-name="Group 937" transform="translate(0 0)">
        <g transform="matrix(1, 0, 0, 1, -21.39, -11.34)" filter="url(#Rectangle_1595)">
          <rect id="Rectangle_1595-2" data-name="Rectangle 1595" width="1.641" height="1.641" transform="translate(21.39 11.34)" fill="#ff6b35"/>
        </g>
      </g>
    </g>
  </g>
</svg>
