<svg xmlns="http://www.w3.org/2000/svg" width="117.897" height="111.863" viewBox="0 0 117.897 111.863">
  <g id="NoPath_-_Copy_3_" data-name="NoPath - Copy (3)" transform="translate(-51.528 -22.26)">
    <path id="Path_47533" data-name="Path 47533" d="M337.123,354.9a6.472,6.472,0,0,0-5.667-1.211c-.732.2-.736.191-.736-.581,0-.528.022-1.055,0-1.583a.6.6,0,0,1,.443-.639,5.073,5.073,0,0,1,4.758.3,27.113,27.113,0,0,1,4.084,2.98.359.359,0,0,1,.129.443c-.089.275-.133.563-.24.834s-.035.488.315.492c.922,0,1.845,0,2.763.022.4,0,.306-.284.306-.5v-8.133c0-.652.022-1.3,0-1.947,0-.395.12-.5.5-.483a16.1,16.1,0,0,0,1.774,0c.421-.027.506.133.5.523v13.149c0,.341-.106.443-.443.443h-4.554a3.1,3.1,0,0,1-2.661-1.286c-.151-.2-.275-.319-.541-.186a15.845,15.845,0,0,1-7.65,1.477,4.172,4.172,0,0,0-1.565.044c-.443.2-.368.914-.563,1.384a4.31,4.31,0,0,1-3.8,2.767,6.009,6.009,0,0,1-3.1-.443.443.443,0,0,1-.341-.443c-.044-.559-.129-1.113-.2-1.672-.08-.687-.062-.7.625-.514a9.1,9.1,0,0,0,2.834.306,2.954,2.954,0,0,0,1.135-.266,1.517,1.517,0,0,0,.745-.8c.142-.306.111-.443-.275-.479a9.193,9.193,0,0,1-4.089-1.494c-1.61-1.091-1.69-1.295-1.091-3.1a8.076,8.076,0,0,1,1.947-3.375,2.732,2.732,0,0,1,4.089.022,7.145,7.145,0,0,1,1.863,4.169c.146.865.124.887,1,.865a40.361,40.361,0,0,0,4.8-.12,9.464,9.464,0,0,0,2.9-.953Zm-11.4,1.02c.2,0,.443.058.368-.257a3.849,3.849,0,0,0-1.051-2.266,1.086,1.086,0,0,0-1.628.027,3.5,3.5,0,0,0-.718,1.1c-.115.235-.062.359.155.492a7.011,7.011,0,0,0,2.874.9Z" transform="translate(-252.148 -248.121)" fill="#fff"/>
    <path id="Path_47534" data-name="Path 47534" d="M416.137,363.189a8.3,8.3,0,0,0-.559.887,1.051,1.051,0,0,1-1.149.67c-1.929-.044-3.858-.035-5.787,0-.51,0-.679-.151-.6-.63v-.2c.04-.443-.115-.47-.443-.253a4.138,4.138,0,0,1-3.131.625A2.936,2.936,0,0,1,402.177,361a7.251,7.251,0,0,1,.563-2.324.887.887,0,0,1,.652-.563c1.379-.372,2.749-.785,4.133-1.149.395-.1.55-.262.537-.692-.031-1.029,0-1.029,1.042-1.029.359,0,.718.022,1.078,0s.443.1.443.443v5.472c0,.443.106.554.537.541.989-.031,1.978-.022,2.971,0,.337,0,.443-.106.443-.443v-3.734c0-.408.084-.59.532-.559a16.526,16.526,0,0,0,1.69,0c.337,0,.443.1.443.443v3.477a.6.6,0,0,0,.47.67,1.918,1.918,0,0,0,2.554-.8,24.786,24.786,0,0,1,2.049-2.931,3.584,3.584,0,0,1,2.63-1.388,2.622,2.622,0,0,1,2.346,1.392,4.736,4.736,0,0,1,.71,3.078.541.541,0,0,0,.443.639,5.632,5.632,0,0,0,1.925.146c.443,0,1.051.2,1.33-.08s.093-.887.1-1.375c0-1.109.022-2.217,0-3.326,0-.395.115-.5.492-.479.6.027,1.2,0,1.774,0,.293,0,.377.093.377.381v7.539c0,.333-.115.4-.417.4h-4.71a2.474,2.474,0,0,1-1.827-.887c-.244-.253-.39-.222-.608,0-.31.341-.679.63-.971.984a.625.625,0,0,1-.887.155c-1.055-.483-2.129-.918-3.193-1.379a.488.488,0,0,0-.665.1,2.917,2.917,0,0,1-4.528,0A3.836,3.836,0,0,1,416.137,363.189Zm-8.093-3.175a4,4,0,0,1,0-.443c.058-.421-.084-.523-.5-.395-.86.271-1.734.5-2.6.758-.124.035-.266,0-.355.164a1,1,0,0,0,.6,1.379,3.5,3.5,0,0,0,1.774-.1C408.048,361.123,408.044,361.118,408.044,360.014Zm17.552,1.228a2.217,2.217,0,0,0-.191-1.1,1.049,1.049,0,0,0-1.911-.2c-.248.324-.443.692-.665,1.029-.173.244-.124.377.151.488.474.191.94.4,1.41.6C425.525,362.56,425.6,362.524,425.6,361.242Z" transform="translate(-297.778 -253.887)" fill="#fff"/>
    <path id="Path_47535" data-name="Path 47535" d="M510.124,351.242c.572-.04,1.144-.1,1.721-.115,3.215-.093,4.878,2.067,5.273,4.807a.719.719,0,0,1-.1.443c-.443.776-.86,1.548-1.273,2.333a.479.479,0,0,1-.488.275h-13.3c-.288,0-.381-.089-.381-.381V345.251c0-.31.129-.368.395-.364.581,0,1.162.031,1.743,0,.408-.022.519.124.514.523v9.876c0,.665,0,.665.656.665h9.211c.563,0,.568,0,.315-.519a3,3,0,0,0-2.749-1.557,16.949,16.949,0,0,0-3.818.235.355.355,0,0,1-.443-.253q-.364-.887-.772-1.774a.444.444,0,0,1,.089-.541q3.038-3.215,6.071-6.439c.222-.235.373-.239.545.058.3.514.6,1.029.936,1.521.208.306.155.492-.111.732-1.255,1.126-2.492,2.275-3.743,3.41a3.551,3.551,0,0,1-.355.27Z" transform="translate(-353.101 -248.121)" fill="#fff"/>
    <path id="Path_47542" data-name="Path 47542" d="M497.892,405.02v-3.685c0-.417.129-.528.519-.506a11.035,11.035,0,0,0,1.432,0c.333,0,.519.089.568.421s.191.395.479.151a3.321,3.321,0,0,1,3.1-.647,1.907,1.907,0,0,1,1.228.86c.169.284.275.3.519.062a3.335,3.335,0,0,1,1.96-1.02c1.911-.213,3.047.674,3.135,2.6s0,3.783.031,5.676c0,.257-.111.319-.341.315h-2c-.319,0-.4-.106-.4-.412v-4.044a4.715,4.715,0,0,0-.035-.661.914.914,0,0,0-1.038-.829,1.185,1.185,0,0,0-1.33,1.33v4.142c0,.341-.067.492-.443.475-.63-.031-1.264,0-1.894,0-.319,0-.408-.1-.4-.412v-4.4a1.047,1.047,0,0,0-.665-1.1,1.774,1.774,0,0,0-1.645.475.732.732,0,0,0-.084.488v4.435c0,.364-.071.523-.474.5a17.248,17.248,0,0,0-1.774,0c-.4.027-.479-.129-.474-.5C497.927,407.507,497.892,406.266,497.892,405.02Z" transform="translate(-351.041 -279.136)" fill="#fff"/>
    <path id="Path_47545" data-name="Path 47545" d="M393,393.487c.443,0,.851.022,1.277,0a.449.449,0,0,1,.5.377q1.832,5.468,3.681,10.936c.133.4.053.5-.355.479-.683-.027-1.366,0-2.049,0a.443.443,0,0,1-.506-.364c-.191-.674-.443-1.33-.625-2a.443.443,0,0,0-.532-.4h-3.1a.432.432,0,0,0-.488.381c-.2.67-.443,1.33-.616,2a.443.443,0,0,1-.541.386c-.577,0-1.157-.031-1.738,0-.443.022-.514-.071-.372-.5.98-2.9,1.938-5.814,2.9-8.723.235-.71.483-1.419.687-2.137a.51.51,0,0,1,.621-.443C392.135,393.514,392.578,393.487,393,393.487Zm1.055,6.758-1.188-3.667c-.47,1.149-.82,2.279-1.184,3.41-.071.226,0,.262.213.262C392.578,400.241,393.279,400.245,394.051,400.245Z" transform="translate(-289.595 -275.156)" fill="#fff"/>
    <path id="Path_47546" data-name="Path 47546" d="M289.523,393.52c.443,0,.851.022,1.277,0a.452.452,0,0,1,.506.373q1.836,5.5,3.69,10.989c.12.35.058.443-.306.443h-2.151a.4.4,0,0,1-.443-.346c-.208-.7-.443-1.392-.656-2.093a.386.386,0,0,0-.443-.324h-3.224c-.284,0-.381.12-.443.364-.2.67-.443,1.33-.616,2-.08.284-.2.417-.528.4-.563-.027-1.126,0-1.69,0s-.585,0-.408-.537q1.65-4.993,3.3-9.987c.412-1.251.417-1.251,1.747-1.251Zm-1.4,6.758h1.22c1.233,0,1.233,0,.851-1.166-.275-.851-.554-1.7-.887-2.661Z" transform="translate(-232.008 -275.189)" fill="#fff"/>
    <path id="Path_47547" data-name="Path 47547" d="M461.638,396.925v3.934a8.913,8.913,0,0,0,.377,2.82c.115.381.062.576-.4.55-.576-.031-1.157,0-1.738,0-.284,0-.563.058-.683-.346-.084-.279-.253,0-.341.04a3.769,3.769,0,0,1-2.856.443,3.246,3.246,0,0,1-2.523-2.883,8.324,8.324,0,0,1,.714-4.776,1.228,1.228,0,0,1,.723-.665,5.916,5.916,0,0,1,3.548-.333c.377.08.47-.044.443-.4v-3.273c0-.337.1-.443.443-.443.612.022,1.228.027,1.84,0,.355,0,.443.1.443.443C461.638,393.683,461.638,395.319,461.638,396.925Zm-2.661,3.033v-1.477a.341.341,0,0,0-.3-.395,4.258,4.258,0,0,0-2.018-.106.443.443,0,0,0-.417.443,8.771,8.771,0,0,0-.1,2.182,1.562,1.562,0,0,0,2.364,1.388.674.674,0,0,0,.475-.741A12.626,12.626,0,0,1,458.977,399.958Z" transform="translate(-326.281 -274.114)" fill="#fff"/>
    <path id="Path_47548" data-name="Path 47548" d="M291.962,366.216c-1.388-.062-3.1.111-4.8-.084-3.3-.372-4.435-2.763-4.155-5.459a.172.172,0,0,1,.022-.1c.279-1.747.279-1.734,2.027-2.031.443-.075.519.089.421.443a6.382,6.382,0,0,0-.2,2.027,2.066,2.066,0,0,0,1.876,2.031,8.038,8.038,0,0,0,1.53.129h5.526c.417,0,.514-.129.51-.523-.022-1.415,0-2.829,0-4.248,0-.412.124-.523.519-.5.576.031,1.157,0,1.738,0,.284,0,.39.075.39.372v7.539c0,.373-.173.408-.47.4C295.346,366.212,293.812,366.216,291.962,366.216Z" transform="translate(-231.44 -255.361)" fill="#fff"/>
    <path id="Path_47549" data-name="Path 47549" d="M323.843,396.313a4.435,4.435,0,0,1,2.692-.812,2.36,2.36,0,0,1,2.6,2.47c.062,1.942,0,3.889.027,5.832,0,.3-.146.328-.381.324-.63,0-1.259-.022-1.894,0-.364,0-.443-.115-.443-.47v-4.346c0-.523,0-1.047-.612-1.273a2.217,2.217,0,0,0-1.894.532.714.714,0,0,0-.075.492v4.6c0,.355-.089.479-.443.443a15.231,15.231,0,0,0-1.743,0c-.417,0-.506-.129-.506-.519V392.948c0-.47-.217-1.073.1-1.375s.887-.075,1.33-.08c1.237,0,1.237,0,1.237,1.251Z" transform="translate(-252.66 -274.018)" fill="#fff"/>
    <path id="Path_47552" data-name="Path 47552" d="M530.792,413.516l1.361-4.018c-.625.133-.745-.235-.887-.678q-1.131-3.6-2.319-7.189c-.146-.443-.062-.568.4-.545a18.191,18.191,0,0,0,1.84,0,.528.528,0,0,1,.634.47c.39,1.463.82,2.914,1.228,4.373a.665.665,0,0,0,.191.381c.541-1.592,1.086-3.166,1.605-4.749.115-.341.257-.5.643-.475.612.035,1.228,0,1.84,0,.324,0,.364.093.262.39q-2,5.845-3.991,11.694c-.053.16-.071.341-.31.341Z" transform="translate(-368.301 -279.393)" fill="#fff"/>
    <path id="Path_47553" data-name="Path 47553" d="M481.355,405.7h-2.248c-.443,0-.443.151-.31.479a1.588,1.588,0,0,0,1.57.936,9.424,9.424,0,0,0,3.1-.337c.377-.1.5,0,.483.364a11.165,11.165,0,0,0,0,1.277.559.559,0,0,1-.479.683,10.2,10.2,0,0,1-4.151.337,3.411,3.411,0,0,1-3.251-3.605,7.92,7.92,0,0,1,.922-4.186.807.807,0,0,1,.408-.443,7.33,7.33,0,0,1,4.395-.408,3.232,3.232,0,0,1,2.417,3.224c.111,1.619.062,1.676-1.526,1.676Zm-1.166-1.446h.865c.674,0,.794-.2.479-.8a1.02,1.02,0,0,0-.647-.532,2.79,2.79,0,0,0-1.211-.04c-.8.137-.887.222-.971,1.011-.027.257,0,.381.31.368.372-.018.767,0,1.157,0Z" transform="translate(-338.904 -279.143)" fill="#fff"/>
    <path id="Path_47554" data-name="Path 47554" d="M440.218,405.229a9.88,9.88,0,0,0,.4,3.636c.106.288-.022.4-.324.395h-1.942c-.182,0-.341,0-.39-.235-.08-.377-.271-.279-.506-.124a4.178,4.178,0,0,1-3,.541c-1.632-.239-2.381-1.561-1.978-3.339.169-.723.466-1.193,1.308-1.295a28.28,28.28,0,0,1,3.4-.355c.443,0,.523-.16.443-.559a1.02,1.02,0,0,0-1.082-.887,12.452,12.452,0,0,0-2.9.275c-.665.12-.678.115-.683-.577v-.767c0-1.1-.12-.847.86-1.038a15.158,15.158,0,0,1,3.667-.248,2.568,2.568,0,0,1,2.741,2.781C440.236,404.032,440.218,404.63,440.218,405.229Zm-2.572,1.295c-.111-.2.266-.665-.315-.652a15.52,15.52,0,0,0-2.075.208.35.35,0,0,0-.328.262.887.887,0,0,0,.887,1.3,3.273,3.273,0,0,0,1.153-.142c.479-.155.874-.346.678-.98Z" transform="translate(-314.587 -279.146)" fill="#fff"/>
    <path id="Path_47555" data-name="Path 47555" d="M348.513,408.77a4.75,4.75,0,0,1-2.8.953,2.463,2.463,0,0,1-2.705-2.661c-.027-1.863,0-3.721,0-5.579,0-.328.124-.4.421-.395.63,0,1.264.027,1.894,0,.364,0,.443.137.443.443v4.3c0,.532-.031,1.091.616,1.33a2.217,2.217,0,0,0,1.894-.528c.124-.155.071-.324.075-.488V401.59c0-.364.066-.519.47-.5.612.035,1.228,0,1.84,0,.293,0,.381.1.381.381v7.676c0,.262-.08.368-.35.355a9.507,9.507,0,0,0-1.33,0C348.8,409.573,348.5,409.431,348.513,408.77Z" transform="translate(-264.846 -279.401)" fill="#fff"/>
    <path id="Path_47556" data-name="Path 47556" d="M367.594,402.4v1.33c.022.559.284.8.851.772a3.467,3.467,0,0,0,1.224-.333c.244-.106.341-.04.395.2.124.514.262,1.024.39,1.534a.319.319,0,0,1-.16.443,5.073,5.073,0,0,1-3.605.554c-1.171-.275-1.774-1.2-1.818-2.683-.027-1.007-.022-2.013,0-3.016,0-.355-.058-.523-.47-.51-.687.022-.687,0-.687-.718v-.612c0-.306-.075-.67.062-.887s.537-.08.816-.093.275-.137.275-.333v-1.583c0-.24.08-.333.324-.328h2.1c.253,0,.319.106.315.337,0,.479.022.958,0,1.432-.027.4.133.5.5.479.559-.031,1.122,0,1.685,0,.293,0,.39.093.381.381,0,.51-.022,1.024,0,1.534,0,.355-.137.443-.443.443-.528,0-1.06.027-1.583,0-.443-.031-.563.142-.528.554s0,.785,0,1.175Z" transform="translate(-276.367 -276.641)" fill="#fff"/>
    <path id="Path_47559" data-name="Path 47559" d="M482.321,364.36H479.66c-.3,0-.443-.066-.523-.39-.129-.687-.275-1.37-.443-2.044-.124-.443,0-.612.483-.608h4.554c.577,0,.581,0,.288-.506a25.794,25.794,0,0,0-2.874-3.9c-.31-.355-.337-.576.062-.887a15,15,0,0,0,1.33-1.277c.226-.231.408-.266.63,0a18.23,18.23,0,0,1,3.641,6.448.922.922,0,0,1-.093.772c-.372.67-.736,1.33-1.078,2.031a.563.563,0,0,1-.594.359C484.126,364.347,483.239,364.36,482.321,364.36Z" transform="translate(-340.344 -253.506)" fill="#fff"/>
    <path id="Path_47560" data-name="Path 47560" d="M414.091,405.222a7.5,7.5,0,0,1,.843-3.645,1.024,1.024,0,0,1,.541-.506,7.887,7.887,0,0,1,5.357-.16.379.379,0,0,1,.3.443v1.384c0,.545-.071.608-.594.479a11.343,11.343,0,0,0-3.047-.275.661.661,0,0,0-.749.674,9.222,9.222,0,0,0-.089,1.774,1.556,1.556,0,0,0,1.645,1.641,6.208,6.208,0,0,0,2.368-.328c.355-.124.47-.022.466.328v1.486a.417.417,0,0,1-.319.443,7.264,7.264,0,0,1-4.177.275,3.366,3.366,0,0,1-2.532-3.1A7.735,7.735,0,0,1,414.091,405.222Z" transform="translate(-304.411 -279.086)" fill="#fff"/>
    <path id="Path_47563" data-name="Path 47563" d="M383.914,351.925v-6.439c0-.443.084-.652.585-.612a15.246,15.246,0,0,0,1.685,0c.288,0,.381.089.381.381v13.339c0,.3-.1.381-.386.377a15.5,15.5,0,0,0-1.636,0c-.479.04-.639-.106-.634-.612C383.95,356.218,383.914,354.071,383.914,351.925Z" transform="translate(-287.618 -248.113)" fill="#fff"/>
    <path id="Path_47564" data-name="Path 47564" d="M311.35,397.95v-5.832c0-.368.08-.519.479-.492.594.031,1.193.027,1.774,0,.341,0,.443.115.443.443v11.769c0,.306-.08.421-.4.412-.612,0-1.228-.027-1.84,0-.368,0-.443-.115-.443-.443C311.359,401.839,311.35,399.9,311.35,397.95Z" transform="translate(-247.236 -274.133)" fill="#fff"/>
    <path id="Path_47565" data-name="Path 47565" d="M543.742,354.943v5.725c0,.359-.093.479-.443.443a13.441,13.441,0,0,0-1.636,0c-.443.031-.577-.1-.572-.559V349.147c0-.31.093-.421.408-.408.576,0,1.162.031,1.738,0,.395,0,.523.093.519.51C543.711,351.156,543.742,353.049,543.742,354.943Z" transform="translate(-375.095 -250.265)" fill="#fff"/>
    <path id="Path_47584" data-name="Path 47584" d="M448.168,196.519a8.657,8.657,0,0,1-1.854-.519c-2.745-.82-5.477-1.676-8.213-2.519a1.453,1.453,0,0,0-.248-.035,4.515,4.515,0,0,1,.089-1.636,1.357,1.357,0,0,1,.5.08c2.284.705,4.563,1.424,6.852,2.1a8.613,8.613,0,0,0,2.253.59A5.454,5.454,0,0,1,448.168,196.519Z" transform="translate(-317.619 -162.928)" fill="#fff"/>
    <path id="Path_47585" data-name="Path 47585" d="M447.7,192.268a8.123,8.123,0,0,1-2.253-.59c-2.288-.674-4.568-1.392-6.851-2.1a1.357,1.357,0,0,0-.5-.08,5.017,5.017,0,0,1,.523-1.84c1.65.5,3.29,1.02,4.949,1.486a7.479,7.479,0,0,0,2.2.563A9.45,9.45,0,0,1,447.7,192.268Z" transform="translate(-317.777 -160.619)" fill="#fff"/>
    <path id="Path_47590" data-name="Path 47590" d="M468.236,381.466c0,.151-.106.208-.191.284-.51.443-1.029.838-1.526,1.277-.217.186-.346.2-.528-.035-.266-.355-.581-.67-.851-1.02-.151-.191-.253-.217-.443-.049-.443.372-.887.714-1.29,1.086-.217.186-.368.235-.577-.031-.381-.5-.794-.976-1.206-1.45-.186-.213-.182-.355.049-.537.537-.417,1.06-.851,1.574-1.295.2-.169.315-.191.483.044.235.328.532.621.767.953s.341.3.6.067c.412-.377.86-.723,1.295-1.073.111-.089.226-.235.381-.044q.692.851,1.392,1.694a.925.925,0,0,1,.071.129Z" transform="translate(-330.795 -267.414)" fill="#fff"/>
    <path id="Path_47591" data-name="Path 47591" d="M431.089,381.5a.353.353,0,0,1-.186.3c-.519.443-1.051.86-1.565,1.33-.213.186-.346.146-.483-.067a1.158,1.158,0,0,0-.169-.2c-.31-.328-.541-.945-.918-.945s-.718.5-1.078.785c-.758.612-.758.616-1.384-.129a1.328,1.328,0,0,1-.1-.12c-.279-.4-.887-.718-.829-1.157s.656-.634,1.016-.945.643-.692.962-.687.532.55.8.851a2.533,2.533,0,0,1,.262.315c.155.248.3.2.488.031.443-.368.887-.71,1.29-1.078.2-.177.341-.213.532.031.381.5.8.976,1.2,1.459A1.859,1.859,0,0,1,431.089,381.5Z" transform="translate(-310.136 -267.469)" fill="#fff"/>
    <path id="Path_47594" data-name="Path 47594" d="M299.5,350.881a.329.329,0,0,1-.16.266c-.537.443-1.078.887-1.61,1.33-.2.177-.341.137-.5-.062-.231-.3-.5-.563-.727-.86-.173-.222-.31-.2-.5-.04-.359.315-.732.616-1.091.927-.155.133-.262.164-.417-.022-.4-.483-.82-.953-1.242-1.424-.169-.186-.191-.319.035-.492.554-.443,1.1-.887,1.628-1.33.213-.186.337-.137.492.062a7.661,7.661,0,0,1,.523.625c.3.51.6.408.945.053a3.889,3.889,0,0,1,.355-.293c.745-.59.745-.59,1.37.151l.727.856C299.394,350.726,299.452,350.806,299.5,350.881Z" transform="translate(-237.093 -250.443)" fill="#fff"/>
    <path id="Path_47595" data-name="Path 47595" d="M409.935,348.182a1.516,1.516,0,0,1-.16.182c-.559.47-1.131.931-1.685,1.41-.182.16-.279.106-.408-.053-.226-.279-.483-.532-.7-.816s-.364-.35-.639-.075-.683.568-1.016.856c-.151.129-.262.2-.421,0-.443-.51-.865-1.011-1.308-1.508-.133-.151-.115-.253.035-.377.581-.47,1.166-.945,1.738-1.423.169-.142.262-.084.377.053.217.266.443.506.665.781s.443.368.727.071a12.061,12.061,0,0,1,.989-.812c.133-.111.248-.177.386,0l1.33,1.561A1.513,1.513,0,0,1,409.935,348.182Z" transform="translate(-298.525 -248.906)" fill="#fff"/>
    <path id="Path_47597" data-name="Path 47597" d="M446.424,187.249a8.076,8.076,0,0,1-2.2-.563c-1.659-.443-3.3-.989-4.949-1.486a6.751,6.751,0,0,1,1.091-1.96,5.322,5.322,0,0,1,.541.106c.887.262,1.774.545,2.661.8.133.04.306.217.443,0A38.961,38.961,0,0,0,446.424,187.249Z" transform="translate(-318.434 -158.16)" fill="#fff"/>
    <path id="Path_47600" data-name="Path 47600" d="M539.848,339.661c-.106-.3-.288-.5-.279-.767,0-.931.115-1.752,1.392-1.84a7.012,7.012,0,0,1,.914-.053c.967.053,1.082.222.887,1.175-.058.253-.2.226-.377.222-.373,0-.745-.031-1.122-.035-.306,0-.395.155-.377.443.053.78.262.958,1.051.86a1.961,1.961,0,0,1,.359-.031c.271,0,.6-.266.776-.058.231.279.169.71.239,1.078.04.2-.111.226-.239.253a21.938,21.938,0,0,1-3.929.16c-.151,0-.213-.084-.213-.222v-.922c0-.226.12-.293.328-.279S539.6,339.661,539.848,339.661Z" transform="translate(-373.893 -243.733)" fill="#fff"/>
    <path id="Path_47618" data-name="Path 47618" d="M445.355,180.592c-.133.235-.306.058-.443,0-.887-.257-1.774-.541-2.661-.8a5.322,5.322,0,0,0-.541-.106,13.275,13.275,0,0,1,2.5-2.8A10,10,0,0,0,445.355,180.592Z" transform="translate(-319.786 -154.62)" fill="#fff"/>
    <path id="Path_47621" data-name="Path 47621" d="M458.41,330.064l.044.022-.035-.027Z" transform="translate(-329.08 -239.871)" fill="#fff"/>
    <g id="Group_933" data-name="Group 933" transform="translate(68.77 26.243)">
      <path id="Path_47531" data-name="Path 47531" d="M329.171,193.4a9.117,9.117,0,0,1-2.036-.443c-.417-.129-.443,0-.443.364.155,1.588.3,3.18.443,4.772q.337,3.605.683,7.206c.062.678.115,1.353.177,2.031-.355.222-.279.581-.279.909V254.3c-.758.408-.78.408-.847-.443-.208-2.581-.395-5.166-.585-7.747q-.377-5.2-.758-10.4-.279-3.769-.554-7.539-.386-5.228-.78-10.457-.279-3.716-.545-7.446-.39-5.246-.785-10.5l-.541-7.344q-.226-3.1-.443-6.208c0-.173-.151-.492.257-.3,2.315,1.082,4.687,2.027,7.042,3.016Z" transform="translate(-321.849 -185.862)" fill="#fff"/>
      <path id="Path_47532" data-name="Path 47532" d="M444.618,245.777a8.517,8.517,0,0,0,3.4-1.45c.829-.506,1.628-1.06,2.435-1.6a.5.5,0,0,0,.031.151c1.33,2.59,2.687,5.171,4.018,7.761,1.091,2.124,2.164,4.257,3.246,6.381.075.151.124.324.306.39a29.412,29.412,0,0,1-2.909,3.641,23.662,23.662,0,0,1-3.353,3.1c-.177.1-.359.191-.532.293a4.377,4.377,0,0,1-2.022.745,2.747,2.747,0,0,1-2.8-1.978,15.831,15.831,0,0,1-.581-2.035,2.26,2.26,0,0,1,0-.3,19.184,19.184,0,0,0,.4-4.182c0-.372-.1-.474-.443-.266a.389.389,0,0,1-.581-.39c-.772-1.512-1.539-3.024-2.319-4.537-.443-.86-.851-1.738-1.33-2.581a2.794,2.794,0,0,1-.585-1.552,1.415,1.415,0,0,1,.506-.231,22.922,22.922,0,0,0,3.118-1.366Z" transform="translate(-388.156 -217.511)" fill="#fff"/>
      <path id="Path_47536" data-name="Path 47536" d="M375.57,214.623q.78-3.61,1.557-7.228l4.071-18.577c.035-.164.084-.324.142-.528a3.961,3.961,0,0,1,.807.718c-.164.093-.142.257-.142.408v11.605c0,.164-.04.359.213.39-.395,1.933-.78,3.867-1.184,5.8q-2.435,11.605-4.878,23.211c-.049.231-.12.443-.182.683a1.188,1.188,0,0,1-.217-.887V215.2C375.761,214.991,375.889,214.72,375.57,214.623Z" transform="translate(-351.747 -187.213)" fill="#fff"/>
      <path id="Path_47537" data-name="Path 47537" d="M335.122,281.251V235.189c0-.328-.075-.687.279-.909l.958,10.115q.537,5.694,1.086,11.393c.293,3.1.568,6.208.86,9.313.253,2.714.519,5.424.776,8.138a2.409,2.409,0,0,1,0,.253c-.217.049-.177.222-.177.368v5.818Z" transform="translate(-329.232 -212.809)" fill="#fff"/>
      <path id="Path_47538" data-name="Path 47538" d="M409.5,250.069a7.888,7.888,0,0,1-.306-1.9,17.149,17.149,0,0,1,2.749-10.417,14.663,14.663,0,0,1,1.65-2.319,4.431,4.431,0,0,1-.067.443,14.833,14.833,0,0,0-.545,4.368,4.949,4.949,0,0,0,.887,2.563,4.651,4.651,0,0,0,1.889,1.33,2.173,2.173,0,0,0,.408,1.029c1.428,2.825,2.865,5.65,4.284,8.479.12.235.359.443.324.732a14.5,14.5,0,0,1-3.991-.1c-.585-.155-1.171-.324-1.774-.466a23.375,23.375,0,0,1-2.337-.971A16.545,16.545,0,0,1,409.5,250.069Z" transform="translate(-370.437 -213.449)" fill="#fff"/>
      <path id="Path_47539" data-name="Path 47539" d="M420.51,240.869a4.338,4.338,0,0,1-1.889-1.33,4.949,4.949,0,0,1-.887-2.563,14.834,14.834,0,0,1,.545-4.368c.035-.146.044-.3.067-.443h0l.093-.124a16.822,16.822,0,0,1,2.164-2.43c.794.239,1.6.443,2.381.718,1.4.466,2.838.8,4.213,1.33a7.884,7.884,0,0,0-1.206,2.293,2.869,2.869,0,0,0,1.064,3.224,6.59,6.59,0,0,0,4.08,1.255h.514a22.923,22.923,0,0,1-3.082,1.33,1.415,1.415,0,0,0-.506.231,8.246,8.246,0,0,0-1.552.443c-.887.248-1.832.386-2.741.594a11.921,11.921,0,0,1-3.259-.16Z" transform="translate(-375.21 -210.21)" fill="#fff"/>
      <path id="Path_47540" data-name="Path 47540" d="M496.5,216.936a13.925,13.925,0,0,1,3.415-1.162,14.315,14.315,0,0,1,7.565.053,11.348,11.348,0,0,1,4.138,2.266,11.49,11.49,0,0,1,2.488,2.887,2.94,2.94,0,0,1,.421,1.188c-.173,0-.271-.12-.381-.226-.736-.7-1.5-1.384-2.217-2.12a1.251,1.251,0,0,0-1.605-.315,2.532,2.532,0,0,0-1.233.395,4.732,4.732,0,0,0-1.743.834,7.071,7.071,0,0,0-1.242.785,26.549,26.549,0,0,0-4.585,4.337c-.443.067-.647-.142-.829-.51-.807-1.6-1.583-3.211-2.426-4.789A37.493,37.493,0,0,1,496.5,216.936Z" transform="translate(-419.049 -202.241)" fill="#fff"/>
      <path id="Path_47541" data-name="Path 47541" d="M368.179,247.67c.319.1.182.368.182.559v15.016a1.188,1.188,0,0,0,.217.887q-.492,2.43-.98,4.847a.9.9,0,0,1-.04.146c-.129.621-.129.616.5.63a10.6,10.6,0,0,1,1.836.1v4.182c-2.417.142-4.834.248-7.237.514-.519.058-.355-.262-.3-.506q.749-3.459,1.517-6.927l4.177-19.029C368.094,247.963,368.139,247.816,368.179,247.67Z" transform="translate(-344.355 -220.261)" fill="#fff"/>
      <path id="Path_47543" data-name="Path 47543" d="M466.73,235.268,470.841,232c.208,0,.284.155.364.31.275.523.568,1.047.838,1.574l4.945,9.685a1,1,0,0,0-.324.7,13.518,13.518,0,0,1-.191,1.45c-.213.111-.279.333-.4.51-.683.989-1.361,1.982-2.04,2.971-.222,0-.257-.2-.333-.341l-2.714-5.322Z" transform="translate(-402.481 -211.54)" fill="#fff"/>
      <path id="Path_47544" data-name="Path 47544" d="M489.938,219a37.494,37.494,0,0,0,1.774,3.623c.843,1.579,1.619,3.193,2.426,4.789.182.368.4.577.825.51l-.51.714c-1.126,1.366-2.182,2.789-3.379,4.1l-.506.443a1.937,1.937,0,0,0-.341-.674q-2.173-4.333-4.372-8.648c-.364-.71-.763-1.4-1.144-2.1A22.029,22.029,0,0,1,489.938,219Z" transform="translate(-412.487 -204.305)" fill="#fff"/>
      <path id="Path_47550" data-name="Path 47550" d="M479.84,225.19c.381.7.78,1.392,1.144,2.1q2.2,4.315,4.372,8.647a1.937,1.937,0,0,1,.341.674.74.74,0,0,1-.111.222,25.509,25.509,0,0,1-1.911,1.885,3.584,3.584,0,0,1-1.57,1.047l-4.945-9.685c-.271-.528-.563-1.051-.838-1.574-.08-.155-.155-.31-.364-.31A24.47,24.47,0,0,1,479.84,225.19Z" transform="translate(-407.618 -207.75)" fill="#fff"/>
      <path id="Path_47551" data-name="Path 47551" d="M426.33,275.405a14.5,14.5,0,0,0,3.991.1,13.747,13.747,0,0,0,2.958-.5,17.118,17.118,0,0,0,4.2-1.432.887.887,0,0,0,.2-.053c.333-.208.421-.106.443.266a19.185,19.185,0,0,1-.4,4.182,2.255,2.255,0,0,0,0,.3c-.248.958-.5,1.911-.741,2.869l-.08.093a29.573,29.573,0,0,1-7.756-.6,1.353,1.353,0,0,1-.235-.089c-.31-.772-.754-1.472-1.122-2.217A16.562,16.562,0,0,1,426.33,275.405Z" transform="translate(-379.997 -234.586)" fill="#fff"/>
      <path id="Path_47557" data-name="Path 47557" d="M440.43,203.764a34.139,34.139,0,0,0-1.41-3.415,1.614,1.614,0,0,1,.692.142l7.055,2.186,10.036,3.073c.208.062.443.106.545.328-.067.093-.164.089-.266.106a7.658,7.658,0,0,0-1.774.4,15.861,15.861,0,0,0-2.993.7h-.1a6.674,6.674,0,0,0-1.951-.7q-4.705-1.455-9.406-2.891C440.718,203.667,440.554,203.551,440.43,203.764Z" transform="translate(-387.059 -193.925)" fill="#fff"/>
      <path id="Path_47558" data-name="Path 47558" d="M473.255,266.381c.678-.989,1.357-1.982,2.04-2.971.124-.177.191-.4.4-.51a2.748,2.748,0,0,1-.053.5c-.151.887-.31,1.774-.466,2.661a2.426,2.426,0,0,0-.151.373,22.706,22.706,0,0,1-2.492,6.479,21.381,21.381,0,0,1-3.548,4.1,3.859,3.859,0,0,1-1.361,1.033c0-.213-.164-.324-.293-.443l-1.472-1.472a1.632,1.632,0,0,1-.492-.749,23.662,23.662,0,0,0,3.353-3.1,29.411,29.411,0,0,0,2.909-3.641,15.077,15.077,0,0,0,1.623-2.257Z" transform="translate(-401.724 -228.737)" fill="#fff"/>
      <path id="Path_47561" data-name="Path 47561" d="M471.557,253.286a15.079,15.079,0,0,1-1.636,2.257c-.182-.066-.231-.239-.306-.39-1.082-2.124-2.155-4.257-3.246-6.381-1.33-2.59-2.661-5.171-4.018-7.761a.5.5,0,0,1-.031-.151l1.956-1.49,4.235,8.262q1.366,2.661,2.714,5.322C471.3,253.091,471.336,253.277,471.557,253.286Z" transform="translate(-400.026 -215.641)" fill="#fff"/>
      <path id="Path_47562" data-name="Path 47562" d="M503.3,270.49a18.848,18.848,0,0,1-2.2,7.685c-.084.146-.186.284-.279.443a6.079,6.079,0,0,0-1.357.142,27.808,27.808,0,0,1-3.259.443,10.784,10.784,0,0,0-1.561-3.778c.084-.191.275-.235.443-.31a5.641,5.641,0,0,0,1.1-.514c.231-.1.466-.2.692-.315a22.5,22.5,0,0,0,3.508-1.933c.541-.262,1-.647,1.517-.945S502.756,270.663,503.3,270.49Z" transform="translate(-418.019 -232.961)" fill="#fff"/>
      <path id="Path_47566" data-name="Path 47566" d="M456.725,203.38c-.111-.222-.337-.266-.545-.328l-10.036-3.073-7.055-2.186a1.614,1.614,0,0,0-.692-.142,4.878,4.878,0,0,1-.5-2.151,1.455,1.455,0,0,1,.248.035c2.736.843,5.468,1.7,8.213,2.519a8.656,8.656,0,0,0,1.854.519,4.626,4.626,0,0,1,.111,1.419c0,.253.04.4.337.306a7.313,7.313,0,0,1,6.182,1.024,12.266,12.266,0,0,0,4.545,1.579c-.022.089-.066.169-.164.164-.572,0-1.113.186-1.681.213Z" transform="translate(-386.436 -191.226)" fill="#fff"/>
      <path id="Path_47567" data-name="Path 47567" d="M441.872,207.894c.124-.213.288-.1.443-.049l9.406,2.891a6.674,6.674,0,0,1,1.951.7c-.075.035-.142.08-.217.106a25.675,25.675,0,0,0-2.661.918l-1.916.732c-2-.612-3.991-1.237-5.991-1.827a3.764,3.764,0,0,0-1.277-.324A4.714,4.714,0,0,0,441.872,207.894Z" transform="translate(-388.5 -198.055)" fill="#fff"/>
      <path id="Path_47568" data-name="Path 47568" d="M390.29,202.318c-.253-.031-.213-.226-.213-.39v-11.61c0-.151-.022-.315.142-.408l3.911,3.41,1.379,1.2v2.661a1.024,1.024,0,0,1-.257.794,17.025,17.025,0,0,1-3.6-1.929c-.257,1.22-.5,2.39-.754,3.548C390.7,200.5,390.485,201.413,390.29,202.318Z" transform="translate(-359.819 -188.115)" fill="#fff"/>
      <path id="Path_47569" data-name="Path 47569" d="M430.854,227.369c-1.375-.545-2.812-.887-4.213-1.33-.785-.262-1.588-.479-2.381-.718a25.483,25.483,0,0,1,4.075-3.49q2.754.86,5.512,1.725c.231.075.514.067.652.337a25.6,25.6,0,0,0-3.645,3.477Z" transform="translate(-378.845 -205.88)" fill="#fff"/>
      <path id="Path_47570" data-name="Path 47570" d="M343.706,327.814V322c0-.146-.04-.319.177-.368.075.639.071.63.705.443,1.494-.443,2.971-.949,4.5-1.282.217.142.142.364.142.554v4.381Z" transform="translate(-334.012 -260.955)" fill="#fff"/>
      <path id="Path_47571" data-name="Path 47571" d="M355.962,323.913v-4.381c0-.191.075-.412-.142-.554a54.677,54.677,0,0,1,5.823-1.437c.262.151.262.408.262.665v3.765Z" transform="translate(-340.755 -259.146)" fill="#fff"/>
      <path id="Path_47572" data-name="Path 47572" d="M529.77,239.587a19.726,19.726,0,0,1-2.834,5.286c-.3.443-.647.829-.976,1.242a.786.786,0,0,1-.1-.217,1.907,1.907,0,0,0-.723-1.623c.155-.133.1-.315.1-.479v-6.169a2.913,2.913,0,0,1,2.151-.82,1.934,1.934,0,0,1,1.712,1.055A13.17,13.17,0,0,1,529.77,239.587Z" transform="translate(-434.988 -214.213)" fill="#fff"/>
      <path id="Path_47573" data-name="Path 47573" d="M439.614,220.144c-.137-.271-.443-.262-.652-.337q-2.754-.887-5.512-1.725a13.919,13.919,0,0,1,1.6-1.086,6.957,6.957,0,0,0,2-1.876,3.765,3.765,0,0,1,1.277.324c2,.59,3.991,1.215,5.991,1.827a5.232,5.232,0,0,1-.479.284,10.132,10.132,0,0,0-1.978,1.038,18.3,18.3,0,0,0-1.774,1.237Z" transform="translate(-383.959 -202.145)" fill="#fff"/>
      <path id="Path_47574" data-name="Path 47574" d="M439.319,310.74c3.313,1.681,6.208,3.814,7.92,7.237a3.761,3.761,0,0,1,.474,1.33h0c-.6-.368-1.2-.754-1.809-1.109a23.972,23.972,0,0,0-5.765-2.266,1.477,1.477,0,0,1-.226-.1,11.02,11.02,0,0,0,.1-2.324c.563.177,1.033.568,1.614.714l.115.089a.217.217,0,0,0,.2.1c.022.035.04.084.089.027l-.062-.053a.213.213,0,0,0-.2-.111l-.111-.1a10.933,10.933,0,0,0-1.956-1.117c-.177-.093-.35-.2-.523-.293a1.2,1.2,0,0,0,.217-.71A13.088,13.088,0,0,0,439.319,310.74Zm2.914,3.832v-.022h-.022Z" transform="translate(-387.154 -255.362)" fill="#fff"/>
      <path id="Path_47575" data-name="Path 47575" d="M369.2,320.445v-3.783c0-.257,0-.514-.262-.665,1.526-.443,3.1-.687,4.656-.989.443-.089.887-.142,1.33-.208v4.093l-3.743,1.033Z" transform="translate(-348.057 -257.621)" fill="#fff"/>
      <path id="Path_47576" data-name="Path 47576" d="M481.53,274.72a22.706,22.706,0,0,0,2.492-6.479,2.426,2.426,0,0,1,.151-.372,1.4,1.4,0,0,0,.585-.137,15.963,15.963,0,0,0,3.313-1.6,15.806,15.806,0,0,1,.1,2.9.8.8,0,0,1-.554.82c-.519.208-1.011.475-1.525.7a.732.732,0,0,0-.475.758v2.2a25.786,25.786,0,0,1-4.084,1.22Z" transform="translate(-410.718 -230.534)" fill="#fff"/>
      <path id="Path_47577" data-name="Path 47577" d="M490.745,270.161v-2.2a.732.732,0,0,1,.475-.758c.514-.226,1.007-.492,1.525-.7a.8.8,0,0,0,.554-.82,15.8,15.8,0,0,0-.1-2.9c1.237-.829,2.417-1.738,3.583-2.661a1.211,1.211,0,0,1,.1.337v3.468c0,.253-.146.359-.328.466-.732.443-1.455.887-2.2,1.277a.585.585,0,0,0-.35.6c0,.851,0,1.7,0,2.55a5.641,5.641,0,0,1-1.1.514c-.168.075-.359.12-.443.31-.39-.1-.67.2-1.007.279A3.18,3.18,0,0,1,490.745,270.161Z" transform="translate(-415.844 -227.195)" fill="#fff"/>
      <path id="Path_47578" data-name="Path 47578" d="M379.46,301.932V297.75a55.167,55.167,0,0,1,5.734.443v3.659Z" transform="translate(-353.912 -248.132)" fill="#fff"/>
      <path id="Path_47579" data-name="Path 47579" d="M338.36,197.232V192.74c1.894.718,3.823,1.33,5.69,2.124a1.118,1.118,0,0,0,.248.035v2.9A31.727,31.727,0,0,1,338.36,197.232Z" transform="translate(-331.038 -189.69)" fill="#fff"/>
      <path id="Path_47580" data-name="Path 47580" d="M422.341,315.774c-1.774-.137-3.548-.319-5.322-.3h-1.53V312.12a30.6,30.6,0,0,1,6.878.776A8.829,8.829,0,0,1,422.341,315.774Z" transform="translate(-373.964 -256.13)" fill="#fff"/>
      <path id="Path_47581" data-name="Path 47581" d="M382.46,318.032v-4.093c1.268-.3,2.568-.443,3.854-.612.386-.053.776-.071,1.162-.106v3.8Z" transform="translate(-355.581 -256.742)" fill="#fff"/>
      <path id="Path_47582" data-name="Path 47582" d="M392.39,302.409V298.75c1.774.164,3.548.4,5.322.718v3.193Z" transform="translate(-361.108 -248.689)" fill="#fff"/>
      <path id="Path_47583" data-name="Path 47583" d="M421.21,276.107a17.029,17.029,0,0,0,1.432,2.909c.368.745.812,1.446,1.122,2.217a14.1,14.1,0,0,1-4.3-1.636.669.669,0,0,0-.08-.39c-.443-.856-.927-1.7-1.366-2.568a6.962,6.962,0,0,1-.887-1.969,23.379,23.379,0,0,0,2.337.971C420.039,275.783,420.62,275.952,421.21,276.107Z" transform="translate(-374.876 -235.287)" fill="#fff"/>
      <path id="Path_47586" data-name="Path 47586" d="M393.77,316.521v-3.8a16.412,16.412,0,0,1,2.368-.279,13.036,13.036,0,0,1,2.035-.12V315.9Z" transform="translate(-361.876 -256.238)" fill="#fff"/>
      <path id="Path_47587" data-name="Path 47587" d="M520.367,253.548a1.907,1.907,0,0,1,.723,1.623.786.786,0,0,0,.1.217,28.01,28.01,0,0,1-4.6,4.625,30.232,30.232,0,0,1,.093-3.907l.718-.922a1.859,1.859,0,0,0,.506-.5C518.531,253.885,519.2,253.189,520.367,253.548Z" transform="translate(-430.215 -223.478)" fill="#fff"/>
      <path id="Path_47588" data-name="Path 47588" d="M511.434,259.44a30.221,30.221,0,0,0-.093,3.907c-.3.4-.82.563-1.091.993-.545.173-.887.634-1.392.914s-.976.683-1.517.945c-.235-.115-.2-.328-.2-.532,0-.661.031-1.33,0-1.982a1.042,1.042,0,0,1,.51-.971c.621-.466,1.2-.984,1.827-1.446C510.179,260.726,510.729,259.994,511.434,259.44Z" transform="translate(-424.967 -226.811)" fill="#fff"/>
      <path id="Path_47589" data-name="Path 47589" d="M527.455,233.407a17.3,17.3,0,0,0-.665-1.725,1.933,1.933,0,0,0-1.712-1.055c.04-.262-.142-.4-.3-.554-.94-.909-1.88-1.823-2.829-2.723-.306-.288-.643-.545-.967-.816a4.732,4.732,0,0,1,1.743-.834,2.916,2.916,0,0,0,.253.315c.922.856,1.849,1.707,2.767,2.568.656.612,1.33,1.233,1.96,1.858a.55.55,0,0,0,.443.191A10.2,10.2,0,0,1,527.455,233.407Z" transform="translate(-432.673 -208.033)" fill="#fff"/>
      <path id="Path_47592" data-name="Path 47592" d="M449.7,301.32a10.734,10.734,0,0,1-4.04,1.286c-1.4.044-1.49-.093-.909-1.33.519-1.126.887-2.319,1.295-3.481.24-.035.364.137.51.279.834.789,1.588,1.663,2.483,2.395A1.468,1.468,0,0,1,449.7,301.32Z" transform="translate(-390.06 -248.154)" fill="#fff"/>
      <path id="Path_47593" data-name="Path 47593" d="M351.75,200.506v-2.9c2.373.727,4.736,1.494,7.149,2.093a16.615,16.615,0,0,1,1.823.532c-.745.058-1.486.124-2.217.164a58.956,58.956,0,0,1-6.754.106Z" transform="translate(-338.49 -192.4)" fill="#fff"/>
      <path id="Path_47596" data-name="Path 47596" d="M450.29,287.209c.244-.958.492-1.911.741-2.869a15.845,15.845,0,0,0,.581,2.035,2.754,2.754,0,0,0,2.8,1.978c-.04.235.12.368.262.514q1.1,1.091,2.191,2.186c.129.129.3.231.306.443-.545.31-.976.825-1.632.945,0-.2-.142-.3-.262-.421l-4.435-4.435a1.619,1.619,0,0,0-.55-.377Z" transform="translate(-393.331 -240.669)" fill="#fff"/>
      <path id="Path_47598" data-name="Path 47598" d="M468.616,215.1a15.862,15.862,0,0,1,2.971-.718,10.628,10.628,0,0,1-.035,1.064,24.551,24.551,0,0,0-.262,3.069,8.625,8.625,0,0,1-2.98.674c.1-.829.253-1.663.288-2.5C468.616,216.18,468.913,215.648,468.616,215.1Z" transform="translate(-403.36 -201.733)" fill="#fff"/>
      <path id="Path_47599" data-name="Path 47599" d="M430.94,316.748a8.83,8.83,0,0,0,0-2.878,18.143,18.143,0,0,1,4.506,1.388,11.02,11.02,0,0,1-.1,2.324,41.327,41.327,0,0,0-4.164-.741A1.027,1.027,0,0,1,430.94,316.748Z" transform="translate(-382.562 -257.104)" fill="#fff"/>
      <path id="Path_47601" data-name="Path 47601" d="M498.17,289.4a30.947,30.947,0,0,0,3.259-.443,6.078,6.078,0,0,1,1.357-.142,16.446,16.446,0,0,1-3.765,4.333c-.182.151-.443.373-.687.177s-.155-.443-.111-.714A8.426,8.426,0,0,0,498.17,289.4Z" transform="translate(-419.978 -243.156)" fill="#fff"/>
      <path id="Path_47602" data-name="Path 47602" d="M413.138,271.192a7.969,7.969,0,0,0,.887,1.969c.443.865.887,1.712,1.366,2.568a.67.67,0,0,1,.08.39,11.029,11.029,0,0,1-5.477-7.441,1.667,1.667,0,0,1,0-.257A15.1,15.1,0,0,0,413.138,271.192Z" transform="translate(-370.902 -231.809)" fill="#fff"/>
      <path id="Path_47603" data-name="Path 47603" d="M433.3,308.191a13.072,13.072,0,0,1,.111,1.33,1.2,1.2,0,0,1-.217.71c-1.579-.647-3.188-1.2-4.816-1.7V306.16A32.821,32.821,0,0,1,433.3,308.191Z" transform="translate(-381.137 -252.813)" fill="#fff"/>
      <path id="Path_47604" data-name="Path 47604" d="M465.037,216c.279.532,0,1.064,0,1.592-.035.834-.186,1.667-.288,2.5a9.024,9.024,0,0,1-2.869,0c.027-1.024.271-2.031.2-3.06a25.671,25.671,0,0,1,2.661-.918c.075-.027.142-.071.217-.106Z" transform="translate(-399.782 -202.635)" fill="#fff"/>
      <path id="Path_47605" data-name="Path 47605" d="M475.07,217.785a24.551,24.551,0,0,1,.262-3.069c.031-.35.027-.71.035-1.064a7.657,7.657,0,0,1,1.774-.4c.1,0,.2,0,.266-.106l.82-.1c-.027.5,0,1-.071,1.5a2.484,2.484,0,0,0-.027,1.481A9.193,9.193,0,0,1,475.07,217.785Z" transform="translate(-407.122 -200.988)" fill="#fff"/>
      <path id="Path_47606" data-name="Path 47606" d="M449.695,290.81a1.619,1.619,0,0,1,.541.372l4.435,4.435c.12.12.262.226.262.421a4.876,4.876,0,0,1-1.33.785.443.443,0,0,0-.169-.3l-3.867-3.88a.492.492,0,0,0-.346-.186,13.346,13.346,0,0,1,.417-1.552Z" transform="translate(-392.736 -244.27)" fill="#fff"/>
      <path id="Path_47607" data-name="Path 47607" d="M423.263,304.644v2.368l-4.093-.918V303.46A30.3,30.3,0,0,1,423.263,304.644Z" transform="translate(-376.012 -251.31)" fill="#fff"/>
      <path id="Path_47608" data-name="Path 47608" d="M414.821,302.458v2.634l-3.481-.528v-2.9A21.858,21.858,0,0,1,414.821,302.458Z" transform="translate(-371.654 -250.308)" fill="#fff"/>
      <path id="Path_47609" data-name="Path 47609" d="M462.331,295.242c0-.217-.177-.319-.306-.443q-1.091-1.1-2.191-2.186c-.142-.146-.3-.279-.262-.514a4.377,4.377,0,0,0,2.022-.745c.173-.1.355-.2.532-.293a1.632,1.632,0,0,0,.492.749l1.472,1.472c.129.129.293.24.293.443A8.39,8.39,0,0,1,462.331,295.242Z" transform="translate(-398.494 -244.409)" fill="#fff"/>
      <path id="Path_47610" data-name="Path 47610" d="M403.7,315.753V312.17a16.656,16.656,0,0,1,2.661-.106v3.463C405.478,315.629,404.591,315.731,403.7,315.753Z" transform="translate(-367.402 -256.091)" fill="#fff"/>
      <path id="Path_47611" data-name="Path 47611" d="M407.469,300.931v2.9l-3.069-.293V300.35q1.548.214,3.069.581Z" transform="translate(-367.792 -249.579)" fill="#fff"/>
      <path id="Path_47612" data-name="Path 47612" d="M401.74,203.745a1.024,1.024,0,0,0,.257-.794V200.29c.887.723,1.8,1.437,2.661,2.182.124.106.288.164.377.31a14.423,14.423,0,0,0-.093,2.217A30.066,30.066,0,0,1,401.74,203.745Z" transform="translate(-366.311 -193.892)" fill="#fff"/>
      <path id="Path_47613" data-name="Path 47613" d="M409.7,315.543V312.08h2.559v3.353Z" transform="translate(-370.741 -256.107)" fill="#fff"/>
      <path id="Path_47614" data-name="Path 47614" d="M456.819,218.35c.067,1.029-.177,2.035-.2,3.06a13.459,13.459,0,0,1-4.2-1.02,10.133,10.133,0,0,1,1.978-1.038,5.234,5.234,0,0,0,.5-.271Z" transform="translate(-394.517 -203.943)" fill="#fff"/>
      <path id="Path_47615" data-name="Path 47615" d="M448.569,294.52a.492.492,0,0,1,.346.186L452.8,298.6a.444.444,0,0,1,.169.3c-.443.146-.776.492-1.228.6a1.468,1.468,0,0,0-.661-.887c-.887-.732-1.65-1.605-2.483-2.395-.146-.142-.271-.315-.51-.279a8.668,8.668,0,0,1,.479-1.419Z" transform="translate(-392.107 -246.334)" fill="#fff"/>
      <path id="Path_47616" data-name="Path 47616" d="M530.354,230.136a.55.55,0,0,1-.443-.191c-.647-.625-1.3-1.246-1.96-1.858-.918-.86-1.845-1.712-2.767-2.568a2.907,2.907,0,0,1-.253-.315,2.532,2.532,0,0,1,1.233-.395c0,.235.191.35.333.488.284.266.59.506.887.776.82.78,1.636,1.57,2.461,2.35a1.109,1.109,0,0,0,.692.386A4.626,4.626,0,0,1,530.354,230.136Z" transform="translate(-434.871 -207.538)" fill="#fff"/>
      <path id="Path_47617" data-name="Path 47617" d="M408.989,208.217a14.423,14.423,0,0,1,.093-2.217l5.322,4.044c.022,0,.027.062.08.164C412.616,209.548,410.763,208.967,408.989,208.217Z" transform="translate(-370.341 -197.07)" fill="#fff"/>
      <path id="Path_47619" data-name="Path 47619" d="M532.055,228.625a1.108,1.108,0,0,1-.674-.368c-.825-.781-1.641-1.57-2.461-2.35-.284-.271-.59-.51-.887-.776-.142-.137-.333-.253-.333-.488a1.25,1.25,0,0,1,1.605.315c.71.736,1.472,1.419,2.217,2.12.111.106.208.235.381.226a2.662,2.662,0,0,1,.151,1.322Z" transform="translate(-436.413 -207.353)" fill="#fff"/>
      <path id="Path_47620" data-name="Path 47620" d="M481.866,215.551a2.669,2.669,0,0,1,.027-1.481c.049-.483.044-1,.071-1.5.568-.027,1.109-.231,1.681-.213.1,0,.142-.075.164-.164l.936.075a11.871,11.871,0,0,1-2.878,3.286Z" transform="translate(-410.845 -200.515)" fill="#fff"/>
      <path id="Path_47622" data-name="Path 47622" d="M419.263,235.15l-.093.124Z" transform="translate(-376.012 -213.293)" fill="#fff"/>
      <path id="Path_47623" data-name="Path 47623" d="M440.292,262.3a17.12,17.12,0,0,1-4.208,1.441c-.071-.173-.129-.35-.213-.519q-1.144-2.248-2.3-4.492c-.364-.71-.723-1.419-1.1-2.124a10.774,10.774,0,0,1-1.109-2.395c.909-.208,1.836-.346,2.741-.594a8.248,8.248,0,0,1,1.552-.443,2.794,2.794,0,0,0,.585,1.552c.474.843.887,1.721,1.33,2.581.78,1.512,1.548,3.024,2.319,4.537A.887.887,0,0,0,440.292,262.3Z" transform="translate(-382.802 -223.322)" fill="#fff"/>
      <path id="Path_47627" data-name="Path 47627" d="M427.282,255.217a10.776,10.776,0,0,0,1.109,2.395c.372.705.732,1.415,1.1,2.124q1.157,2.248,2.3,4.492c.084.169.142.346.213.519a13.746,13.746,0,0,1-2.971.51c.035-.306-.2-.5-.324-.732-1.419-2.829-2.856-5.654-4.284-8.479A2.173,2.173,0,0,1,424,255,11.92,11.92,0,0,0,427.282,255.217Z" transform="translate(-378.7 -224.34)" fill="#fff"/>
      <path id="Path_47628" data-name="Path 47628" d="M513.042,227.58c.324.271.661.528.967.816.949.887,1.889,1.814,2.829,2.723.16.151.341.293.3.554a2.914,2.914,0,0,0-2.151.82,5.885,5.885,0,0,0-2.12,1.92,7.381,7.381,0,0,0-1.051,1.33c-.443.3-.692.816-1.122,1.135a7.094,7.094,0,0,1-.643-.5c-.838-.789-1.654-1.6-2.506-2.377a2.248,2.248,0,0,0-.847-.612l.51-.714a26.74,26.74,0,0,1,4.59-4.337,7.066,7.066,0,0,1,1.242-.763Z" transform="translate(-424.726 -209.08)" fill="#fff"/>
      <path id="Path_47629" data-name="Path 47629" d="M494.971,254.476c-1.166.922-2.346,1.832-3.583,2.661a15.964,15.964,0,0,1-3.313,1.6,1.4,1.4,0,0,1-.585.137c.155-.887.315-1.774.466-2.661.031-.169.035-.333.053-.5a13.525,13.525,0,0,0,.191-1.45,1,1,0,0,1,.324-.7,3.689,3.689,0,0,0,1.57-1.047c.683-.577,1.282-1.251,1.911-1.885a.741.741,0,0,0,.111-.222l.506-.443a.444.444,0,0,1,.31.155c.594.563,1.157,1.157,1.774,1.667a8.842,8.842,0,0,0,1.583,1.33C495.969,253.7,495.339,253.974,494.971,254.476Z" transform="translate(-414.035 -221.541)" fill="#fff"/>
      <path id="Path_47630" data-name="Path 47630" d="M502.767,248.031a9.646,9.646,0,0,1-1.583-1.33c-.634-.51-1.2-1.1-1.774-1.667a.443.443,0,0,0-.31-.155c1.2-1.308,2.253-2.732,3.379-4.1a2.249,2.249,0,0,1,.847.612c.851.776,1.667,1.588,2.506,2.377a7.094,7.094,0,0,0,.643.5A36.229,36.229,0,0,1,502.767,248.031Z" transform="translate(-420.496 -216.426)" fill="#fff"/>
      <path id="Path_47636" data-name="Path 47636" d="M502.212,250.958a36.235,36.235,0,0,0,3.69-3.783c.443-.319.665-.838,1.122-1.135a1.184,1.184,0,0,1,.1.643v4.377l-.718.922c-.705.554-1.246,1.286-1.969,1.827-.625.443-1.206.98-1.827,1.446a1.042,1.042,0,0,0-.51.971c.04.656,0,1.33,0,1.982,0,.2-.031.417.2.532a22.5,22.5,0,0,1-3.508,1.933c-.226.111-.443.213-.692.315v-2.55a.585.585,0,0,1,.35-.6c.741-.408,1.463-.847,2.2-1.277.182-.106.333-.213.328-.466v-3.468a1.209,1.209,0,0,0-.1-.337C501.245,251.787,501.875,251.508,502.212,250.958Z" transform="translate(-419.94 -219.353)" fill="#fff"/>
      <path id="Path_47637" data-name="Path 47637" d="M518.322,246.981V242.6a1.184,1.184,0,0,0-.1-.643,7.378,7.378,0,0,1,1.051-1.33,5.885,5.885,0,0,1,2.12-1.92v6.177c0,.164.053.346-.1.479-1.162-.359-1.836.337-2.461,1.14A1.858,1.858,0,0,1,518.322,246.981Z" transform="translate(-431.137 -215.274)" fill="#fff"/>
      <path id="Path_47638" data-name="Path 47638" d="M445.2,318.827a.217.217,0,0,1-.2-.1l.035-.035a.213.213,0,0,1,.2.111Z" transform="translate(-390.387 -259.786)" fill="#fff"/>
      <path id="Path_47639" data-name="Path 47639" d="M445.487,319l.062.053c-.049.058-.067,0-.089-.027Z" transform="translate(-390.643 -259.959)" fill="#fff"/>
      <path id="Path_47640" data-name="Path 47640" d="M214.593,164.721l-.013-.031.031,0Z" transform="translate(-159.515 -105.511)" fill="#fff"/>
      <path id="Path_47641" data-name="Path 47641" d="M444.78,318.49l.111.1-.035.035-.115-.089Z" transform="translate(-390.242 -259.675)" fill="#fff"/>
    </g>
  </g>
</svg>
