<svg id="Layer_2" data-name="Layer 2" xmlns="http://www.w3.org/2000/svg" width="32" height="32" viewBox="0 0 32 32">
  <g id="invisible_box" data-name="invisible box">
    <rect id="Rectangle_1676" data-name="Rectangle 1676" width="32" height="32" fill="none"/>
    <rect id="Rectangle_1677" data-name="Rectangle 1677" width="32" height="32" fill="none"/>
  </g>
  <g id="icons_Q2" data-name="icons Q2" transform="translate(1.333 5.333)">
    <path id="Path_48035" data-name="Path 48035" d="M30.733,11.2a3.667,3.667,0,0,0-2.6-2.6C25.867,8,16.667,8,16.667,8S7.467,8,5.2,8.6a3.667,3.667,0,0,0-2.6,2.6A38.91,38.91,0,0,0,2,18.267a38.91,38.91,0,0,0,.6,7.067,3.667,3.667,0,0,0,2.6,2.6c2.267.6,11.467.6,11.467.6s9.2,0,11.467-.6a3.667,3.667,0,0,0,2.6-2.6,38.91,38.91,0,0,0,.6-7.067A38.91,38.91,0,0,0,30.733,11.2Zm-17,11.467v-8.8l7.6,4.4Z" transform="translate(-2 -8)" fill="#fff"/>
  </g>
</svg>
